<svg width="359" height="376" viewBox="0 0 359 376" fill="none" xmlns="http://www.w3.org/2000/svg">
<g clip-path="url(#clip0_1_1764)">
<rect width="375" height="376" fill="#2B2B2B"/>
<g opacity="0.08">
<g filter="url(#filter0_b_1_1764)">
<path d="M365.039 261.759C362.459 261.773 360.58 261.783 359.094 261.681C357.619 261.578 356.614 261.368 355.771 260.985C353.825 260.099 352.263 258.545 351.366 256.604C350.978 255.764 350.762 254.76 350.651 253.285C350.54 251.801 350.539 249.921 350.539 247.341L350.539 179.77C350.539 177.19 350.54 175.311 350.651 173.825C350.762 172.349 350.978 171.342 351.366 170.498C352.263 168.546 353.825 166.976 355.771 166.067C356.614 165.674 357.619 165.453 359.094 165.334C360.58 165.214 362.459 165.203 365.039 165.188L516.798 164.328C519.378 164.314 521.257 164.304 522.743 164.407C524.218 164.509 525.223 164.719 526.066 165.102C528.012 165.989 529.574 167.542 530.471 169.483C530.859 170.323 531.075 171.327 531.186 172.802C531.297 174.287 531.298 176.166 531.298 178.746L531.298 246.317C531.298 248.897 531.297 250.776 531.186 252.262C531.075 253.738 530.859 254.745 530.471 255.589C529.574 257.541 528.012 259.112 526.066 260.02C525.223 260.413 524.218 260.634 522.743 260.753C521.257 260.873 519.378 260.884 516.798 260.899L365.039 261.759Z" stroke="#FF6600" stroke-width="2"/>
</g>
</g>
<g opacity="0.08">
<g filter="url(#filter1_b_1_1764)">
<path d="M5.64771 68.6987C8.22744 68.684 10.1071 68.674 11.5925 68.777C13.0675 68.8792 14.0729 69.0892 14.9155 69.4729C16.8616 70.359 18.4236 71.9123 19.3208 73.8533C19.7092 74.6936 19.9249 75.6978 20.0355 77.1723C20.1468 78.657 20.1475 80.5367 20.1475 83.1165L20.1475 150.687C20.1475 153.267 20.1468 155.147 20.0355 156.633C19.9249 158.108 19.7092 159.115 19.3208 159.96C18.4236 161.911 16.8616 163.482 14.9155 164.39C14.0729 164.783 13.0675 165.005 11.5925 165.124C10.1071 165.244 8.22744 165.255 5.64771 165.269L-146.111 166.129C-148.691 166.144 -150.57 166.154 -152.056 166.051C-153.531 165.949 -154.536 165.739 -155.379 165.355C-157.325 164.469 -158.887 162.916 -159.784 160.975C-160.173 160.134 -160.388 159.13 -160.499 157.656C-160.61 156.171 -160.611 154.291 -160.611 151.711L-160.611 84.1407C-160.611 81.5609 -160.61 79.6812 -160.499 78.1952C-160.388 76.7195 -160.173 75.7129 -159.784 74.8681C-158.887 72.9169 -157.325 71.346 -155.379 70.4378C-154.536 70.0446 -153.531 69.8232 -152.056 69.7042C-150.57 69.5845 -148.691 69.5732 -146.111 69.5585L5.64771 68.6987Z" stroke="#FF6600" stroke-width="2"/>
</g>
<g filter="url(#filter2_b_1_1764)">
<path d="M26.8511 92.3232C29.4308 92.3086 31.3105 92.2986 32.7958 92.4015C34.2709 92.5038 35.2763 92.7137 36.1189 93.0974C38.0649 93.9835 39.627 95.5368 40.5241 97.4778C40.9126 98.3181 41.1282 99.3223 41.2388 100.797C41.3502 102.282 41.3508 104.161 41.3508 106.741L41.3508 174.312C41.3508 176.892 41.3502 178.771 41.2388 180.257C41.1282 181.733 40.9126 182.74 40.5241 183.584C39.627 185.536 38.0649 187.107 36.1189 188.015C35.2763 188.408 34.2709 188.629 32.7958 188.748C31.3105 188.868 29.4308 188.879 26.8511 188.894L-124.908 189.754C-127.487 189.768 -129.367 189.778 -130.852 189.675C-132.327 189.573 -133.333 189.363 -134.175 188.98C-136.122 188.093 -137.684 186.54 -138.581 184.599C-138.969 183.759 -139.185 182.755 -139.295 181.28C-139.407 179.795 -139.407 177.916 -139.407 175.336L-139.407 107.765C-139.407 105.185 -139.407 103.306 -139.295 101.82C-139.185 100.344 -138.969 99.3374 -138.581 98.4926C-137.684 96.5414 -136.122 94.9705 -134.175 94.0623C-133.333 93.6691 -132.327 93.4477 -130.852 93.3288C-129.367 93.209 -127.487 93.1977 -124.908 93.1831L26.8511 92.3232Z" stroke="#FF6600" stroke-width="2"/>
</g>
<g filter="url(#filter3_b_1_1764)">
<path d="M52.295 107.693C54.8748 107.679 56.7545 107.669 58.2398 107.772C59.7149 107.874 60.7203 108.084 61.5628 108.467C63.5089 109.354 65.071 110.907 65.9681 112.848C66.3565 113.688 66.5722 114.692 66.6828 116.167C66.7942 117.652 66.7948 119.531 66.7948 122.111L66.7948 189.682C66.7948 192.262 66.7942 194.141 66.6828 195.627C66.5722 197.103 66.3565 198.11 65.9681 198.955C65.071 200.906 63.5089 202.477 61.5628 203.385C60.7203 203.778 59.7149 203.999 58.2398 204.118C56.7545 204.238 54.8748 204.249 52.295 204.264L-99.4637 205.124C-102.043 205.139 -103.923 205.149 -105.408 205.046C-106.884 204.943 -107.889 204.733 -108.732 204.35C-110.678 203.464 -112.24 201.91 -113.137 199.969C-113.525 199.129 -113.741 198.125 -113.851 196.65C-113.963 195.166 -113.963 193.286 -113.963 190.706L-113.963 123.135C-113.963 120.556 -113.963 118.676 -113.851 117.19C-113.741 115.714 -113.525 114.707 -113.137 113.863C-112.24 111.912 -110.678 110.341 -108.731 109.432C-107.889 109.039 -106.884 108.818 -105.408 108.699C-103.923 108.579 -102.043 108.568 -99.4637 108.553L52.295 107.693Z" stroke="#FF6600" stroke-width="2"/>
</g>
</g>
</g>
<defs>
<filter id="filter0_b_1_1764" x="318.903" y="132.683" width="244.03" height="160.721" filterUnits="userSpaceOnUse" color-interpolation-filters="sRGB">
<feFlood flood-opacity="0" result="BackgroundImageFix"/>
<feGaussianBlur in="BackgroundImage" stdDeviation="15.318"/>
<feComposite in2="SourceAlpha" operator="in" result="effect1_backgroundBlur_1_1764"/>
<feBlend mode="normal" in="SourceGraphic" in2="effect1_backgroundBlur_1_1764" result="shape"/>
</filter>
<filter id="filter1_b_1_1764" x="-192.247" y="37.0535" width="244.03" height="160.721" filterUnits="userSpaceOnUse" color-interpolation-filters="sRGB">
<feFlood flood-opacity="0" result="BackgroundImageFix"/>
<feGaussianBlur in="BackgroundImage" stdDeviation="15.318"/>
<feComposite in2="SourceAlpha" operator="in" result="effect1_backgroundBlur_1_1764"/>
<feBlend mode="normal" in="SourceGraphic" in2="effect1_backgroundBlur_1_1764" result="shape"/>
</filter>
<filter id="filter2_b_1_1764" x="-171.043" y="60.678" width="244.03" height="160.721" filterUnits="userSpaceOnUse" color-interpolation-filters="sRGB">
<feFlood flood-opacity="0" result="BackgroundImageFix"/>
<feGaussianBlur in="BackgroundImage" stdDeviation="15.318"/>
<feComposite in2="SourceAlpha" operator="in" result="effect1_backgroundBlur_1_1764"/>
<feBlend mode="normal" in="SourceGraphic" in2="effect1_backgroundBlur_1_1764" result="shape"/>
</filter>
<filter id="filter3_b_1_1764" x="-145.6" y="76.0481" width="244.03" height="160.721" filterUnits="userSpaceOnUse" color-interpolation-filters="sRGB">
<feFlood flood-opacity="0" result="BackgroundImageFix"/>
<feGaussianBlur in="BackgroundImage" stdDeviation="15.318"/>
<feComposite in2="SourceAlpha" operator="in" result="effect1_backgroundBlur_1_1764"/>
<feBlend mode="normal" in="SourceGraphic" in2="effect1_backgroundBlur_1_1764" result="shape"/>
</filter>
<clipPath id="clip0_1_1764">
<rect width="375" height="376" fill="white"/>
</clipPath>
</defs>
</svg>
