<svg width="48" height="49" viewBox="0 0 48 49" fill="none" xmlns="http://www.w3.org/2000/svg">
<rect y="0.226074" width="48" height="48" rx="8" fill="#FFEDE6"/>
<path d="M18.2645 29.7768C17.1012 29.6534 16.0183 29.1253 15.2047 28.2849C13.2844 26.3008 13.3303 23.101 15.3209 21.1744L18.6058 17.9952C20.5899 16.0749 23.7961 16.1273 25.7163 18.1114C27.6366 20.0955 27.5907 23.2953 25.6001 25.2219L23.9576 26.8115" stroke="#FF6600" stroke-width="2" stroke-linecap="round" stroke-linejoin="round"/>
<path d="M29.7354 18.675C30.8986 18.7985 31.9816 19.3265 32.7952 20.167C34.7154 22.151 34.6696 25.3509 32.6789 27.2775L29.394 30.4567C27.41 32.3769 24.2038 32.3245 22.2835 30.3404C20.3633 28.3564 20.4091 25.1565 22.3998 23.2299L24.0422 21.6403" stroke="#FF6600" stroke-width="2" stroke-linecap="round" stroke-linejoin="round"/>
</svg>
