<svg width="48" height="49" viewBox="0 0 48 49" fill="none" xmlns="http://www.w3.org/2000/svg">
<rect y="0.226074" width="48" height="48" rx="9" fill="#FFE1E9"/>
<path fill-rule="evenodd" clip-rule="evenodd" d="M24.0002 14.7634C23.8947 14.7634 23.6353 14.794 23.4974 15.0846L21.3822 19.5423C21.0474 20.2468 20.4022 20.7364 19.6562 20.8487L14.9207 21.5678C14.6079 21.6154 14.5013 21.8596 14.4689 21.9622C14.4399 22.0611 14.3936 22.3126 14.6091 22.5299L18.0333 25.9975C18.5789 26.5505 18.8268 27.3478 18.697 28.128L17.8908 33.0241C17.841 33.3305 18.0229 33.5088 18.1039 33.5698C18.1897 33.6382 18.419 33.7737 18.7028 33.6174L22.9368 31.3037C23.604 30.9411 24.3986 30.9411 25.0636 31.3037L29.2963 33.6162C29.5813 33.7713 29.8107 33.6358 29.8975 33.5698C29.9786 33.5088 30.1605 33.3305 30.1107 33.0241L29.3021 28.128C29.1724 27.3478 29.4203 26.5505 29.9659 25.9975L33.3901 22.5299C33.6067 22.3126 33.5604 22.0599 33.5303 21.9622C33.499 21.8596 33.3924 21.6154 33.0796 21.5678L28.3441 20.8487C27.5993 20.7364 26.9541 20.2468 26.6193 19.541L24.5017 15.0846C24.3651 14.794 24.1056 14.7634 24.0002 14.7634ZM18.4364 35.5197C17.958 35.5197 17.483 35.361 17.0764 35.0484C16.3745 34.5063 16.0304 33.6113 16.1799 32.7103L16.9861 27.8142C17.0162 27.6323 16.9571 27.448 16.8297 27.3185L13.4055 23.851C12.7753 23.2149 12.5495 22.2748 12.8159 21.4018C13.0846 20.519 13.7959 19.8878 14.6728 19.7559L19.4083 19.0368C19.5913 19.0099 19.7489 18.8915 19.8276 18.723L21.944 14.2641C22.3344 13.4424 23.1221 12.932 24.0002 12.932C24.8782 12.932 25.6659 13.4424 26.0563 14.2641L28.1738 18.7218C28.2538 18.8915 28.4102 19.0099 28.592 19.0368L33.3275 19.7559C34.2044 19.8878 34.9157 20.519 35.1844 21.4018C35.4509 22.2748 35.2238 23.2149 34.5937 23.851L31.1694 27.3185C31.042 27.448 30.9841 27.6323 31.0142 27.813L31.8216 32.7103C31.9699 33.6126 31.6259 34.5075 30.9227 35.0484C30.2103 35.5991 29.2824 35.6735 28.4959 35.2413L24.2643 32.93C24.0986 32.8397 23.9005 32.8397 23.7349 32.93L19.5033 35.2425C19.165 35.4281 18.8001 35.5197 18.4364 35.5197Z" fill="#FD346E"/>
</svg>
