<svg width="375" height="275" viewBox="0 0 375 275" fill="none" xmlns="http://www.w3.org/2000/svg">
<path d="M241.521 111.882C242.457 111.882 243.216 111.123 243.216 110.187C243.216 109.251 242.457 108.493 241.521 108.493C240.585 108.493 239.827 109.251 239.827 110.187C239.827 111.123 240.585 111.882 241.521 111.882Z" fill="#DEE5FF"/>
<path d="M255.405 110.187C255.405 111.132 254.64 111.882 253.711 111.882C252.766 111.882 252.016 111.116 252.016 110.187C252.016 109.259 252.782 108.493 253.711 108.493C254.656 108.493 255.405 109.259 255.405 110.187Z" fill="#DEE5FF"/>
<path d="M265.898 111.882C266.834 111.882 267.593 111.123 267.593 110.187C267.593 109.251 266.834 108.493 265.898 108.493C264.962 108.493 264.203 109.251 264.203 110.187C264.203 111.123 264.962 111.882 265.898 111.882Z" fill="#DEE5FF"/>
<path d="M279.782 110.187C279.782 111.132 279.016 111.882 278.087 111.882C277.142 111.882 276.393 111.116 276.393 110.187C276.393 109.259 277.159 108.493 278.087 108.493C279.032 108.493 279.782 109.259 279.782 110.187Z" fill="#DEE5FF"/>
<path d="M241.521 121.528C242.457 121.528 243.216 120.769 243.216 119.833C243.216 118.897 242.457 118.139 241.521 118.139C240.585 118.139 239.827 118.897 239.827 119.833C239.827 120.769 240.585 121.528 241.521 121.528Z" fill="#DEE5FF"/>
<path d="M255.405 119.833C255.405 120.778 254.639 121.528 253.71 121.528C252.765 121.528 252.016 120.762 252.016 119.833C252.016 118.905 252.782 118.139 253.71 118.139C254.655 118.139 255.405 118.905 255.405 119.833Z" fill="#DEE5FF"/>
<path d="M265.898 121.528C266.834 121.528 267.593 120.769 267.593 119.833C267.593 118.897 266.834 118.139 265.898 118.139C264.962 118.139 264.203 118.897 264.203 119.833C264.203 120.769 264.962 121.528 265.898 121.528Z" fill="#DEE5FF"/>
<path d="M279.782 119.833C279.782 120.778 279.016 121.528 278.087 121.528C277.142 121.528 276.393 120.762 276.393 119.833C276.393 118.905 277.159 118.139 278.087 118.139C279.032 118.139 279.782 118.905 279.782 119.833Z" fill="#DEE5FF"/>
<path d="M241.521 131.174C242.457 131.174 243.216 130.415 243.216 129.48C243.216 128.544 242.457 127.785 241.521 127.785C240.585 127.785 239.827 128.544 239.827 129.48C239.827 130.415 240.585 131.174 241.521 131.174Z" fill="#DEE5FF"/>
<path d="M255.405 129.48C255.405 130.425 254.639 131.174 253.71 131.174C252.765 131.174 252.016 130.408 252.016 129.48C252.016 128.551 252.782 127.785 253.71 127.785C254.655 127.785 255.405 128.551 255.405 129.48Z" fill="#DEE5FF"/>
<path d="M265.898 131.174C266.834 131.174 267.593 130.415 267.593 129.48C267.593 128.544 266.834 127.785 265.898 127.785C264.962 127.785 264.203 128.544 264.203 129.48C264.203 130.415 264.962 131.174 265.898 131.174Z" fill="#DEE5FF"/>
<path d="M279.782 129.48C279.782 130.425 279.016 131.174 278.087 131.174C277.142 131.174 276.393 130.408 276.393 129.48C276.393 128.551 277.159 127.785 278.087 127.785C279.032 127.785 279.782 128.551 279.782 129.48Z" fill="#DEE5FF"/>
<path d="M241.521 140.82C242.457 140.82 243.216 140.061 243.216 139.126C243.216 138.19 242.457 137.431 241.521 137.431C240.585 137.431 239.827 138.19 239.827 139.126C239.827 140.061 240.585 140.82 241.521 140.82Z" fill="#DEE5FF"/>
<path d="M255.405 139.126C255.405 140.071 254.639 140.82 253.71 140.82C252.765 140.82 252.016 140.054 252.016 139.126C252.016 138.18 252.782 137.431 253.71 137.431C254.655 137.431 255.405 138.18 255.405 139.126Z" fill="#DEE5FF"/>
<path d="M265.898 140.82C266.834 140.82 267.593 140.061 267.593 139.126C267.593 138.19 266.834 137.431 265.898 137.431C264.962 137.431 264.203 138.19 264.203 139.126C264.203 140.061 264.962 140.82 265.898 140.82Z" fill="#DEE5FF"/>
<path d="M279.782 139.126C279.782 140.071 279.016 140.82 278.087 140.82C277.142 140.82 276.393 140.054 276.393 139.126C276.393 138.18 277.159 137.431 278.087 137.431C279.032 137.431 279.782 138.18 279.782 139.126Z" fill="#DEE5FF"/>
<path d="M215.922 42.1261C215.613 42.1261 215.303 41.9468 215.173 41.6373L202.561 13.269L191.905 15.5013C191.449 15.5991 191.025 15.3058 190.943 14.8658C190.846 14.4259 191.139 13.9859 191.579 13.9045L202.887 11.5418C203.262 11.4603 203.637 11.6559 203.8 12.0143L216.411 40.3826L252.079 32.9361L255.469 5.48035C255.517 5.0404 255.925 4.71452 256.381 4.7634C256.821 4.81228 257.147 5.21964 257.082 5.67588L253.627 33.7183C253.578 34.0604 253.334 34.3374 252.992 34.4189L216.102 42.1098C216.037 42.1098 215.988 42.1261 215.922 42.1261Z" fill="#FF6600" fill-opacity="0.08"/>
<path d="M212.583 33.7998L217.276 44.3585L212.583 33.7998Z" fill="white"/>
<path d="M217.276 45.1733C216.966 45.1733 216.673 44.994 216.526 44.6844L211.833 34.1258C211.654 33.7184 211.833 33.2296 212.241 33.0504C212.648 32.8711 213.137 33.0504 213.316 33.4577L218.009 44.0164C218.188 44.4237 218.009 44.9126 217.601 45.0918C217.504 45.1407 217.39 45.1733 217.276 45.1733Z" fill="#FF6600" fill-opacity="0.08"/>
<path d="M225.813 48.709C226.514 52.0331 224.379 55.2919 221.039 55.9925C217.715 56.6932 214.456 54.5587 213.755 51.2183C213.055 47.8943 215.189 44.6355 218.53 43.9348C221.854 43.2505 225.112 45.385 225.813 48.709Z" fill="white"/>
<path d="M219.784 56.9373C216.558 56.9373 213.658 54.6724 212.973 51.3973C212.599 49.5723 212.941 47.7148 213.967 46.1505C214.994 44.5863 216.558 43.5272 218.367 43.1524C220.192 42.7776 222.049 43.1198 223.613 44.1463C225.178 45.1729 226.237 46.7371 226.612 48.5458C226.986 50.3707 226.644 52.2283 225.618 53.7925C224.591 55.3568 223.027 56.4159 221.218 56.7907C220.729 56.8884 220.257 56.9373 219.784 56.9373ZM219.801 44.6352C219.442 44.6352 219.067 44.6678 218.693 44.7492C217.291 45.0425 216.102 45.8572 215.32 47.0467C214.538 48.2362 214.277 49.6701 214.554 51.0551C215.157 53.9392 217.992 55.7967 220.876 55.1938C222.277 54.9005 223.467 54.0858 224.249 52.8963C225.031 51.7069 225.292 50.273 225.015 48.888C224.721 47.4867 223.907 46.2972 222.717 45.5151C221.837 44.9285 220.827 44.6352 219.801 44.6352Z" fill="#FF6600" fill-opacity="0.08"/>
<path d="M258.711 41.8489C259.412 45.1729 257.277 48.4318 253.937 49.1324C250.613 49.8331 247.354 47.6985 246.653 44.3582C245.953 41.0342 248.087 37.7754 251.428 37.0747C254.768 36.3904 258.027 38.5249 258.711 41.8489Z" fill="white"/>
<path d="M252.698 50.0777C249.472 50.0777 246.555 47.8128 245.87 44.5377C245.088 40.7737 247.5 37.0749 251.264 36.2928C253.089 35.918 254.946 36.2602 256.511 37.2867C258.075 38.3133 259.134 39.8775 259.509 41.6862C259.884 43.5111 259.541 45.3687 258.515 46.9329C257.488 48.4972 255.924 49.5563 254.115 49.9311C253.643 50.0288 253.17 50.0777 252.698 50.0777ZM252.714 37.7593C252.356 37.7593 251.981 37.7918 251.606 37.8733C248.722 38.4762 246.864 41.3114 247.467 44.1955C248.07 47.0796 250.905 48.9208 253.789 48.3342C255.191 48.0409 256.38 47.2262 257.162 46.0367C257.945 44.8473 258.205 43.4134 257.928 42.0283C257.635 40.627 256.82 39.4376 255.631 38.6554C254.735 38.0526 253.724 37.7593 252.714 37.7593Z" fill="#FF6600" fill-opacity="0.08"/>
<path d="M225.813 48.709L246.67 44.3584L225.813 48.709Z" fill="white"/>
<path d="M225.813 49.5233C225.439 49.5233 225.097 49.2626 225.015 48.8715C224.917 48.4316 225.211 47.9916 225.651 47.9102L246.507 43.5596C246.947 43.4618 247.387 43.7551 247.469 44.1951C247.566 44.635 247.273 45.075 246.833 45.1564L225.976 49.507C225.928 49.5233 225.862 49.5233 225.813 49.5233Z" fill="#FF6600" fill-opacity="0.08"/>
<path d="M255.729 9.91235L206.749 20.1288L255.729 9.91235Z" fill="white"/>
<path d="M206.749 20.9434C206.374 20.9434 206.032 20.6827 205.95 20.2917C205.852 19.8517 206.146 19.4118 206.586 19.3303L255.566 9.11381C256.006 9.01604 256.446 9.30934 256.528 9.74928C256.625 10.1892 256.332 10.6292 255.892 10.7106L206.912 20.9271C206.863 20.9434 206.814 20.9434 206.749 20.9434Z" fill="#FF6600" fill-opacity="0.08"/>
<path d="M79.3124 146.1H151.17C152.93 146.1 154.364 144.666 154.364 142.906V31.1927C154.364 29.4329 152.93 27.999 151.17 27.999H79.3124C77.5527 27.999 76.1188 29.4329 76.1188 31.1927V142.922C76.1188 144.682 77.5364 146.1 79.3124 146.1Z" fill="white"/>
<path d="M151.17 146.914H79.3125C77.0964 146.914 75.3041 145.122 75.3041 142.906V31.1925C75.3041 28.9764 77.0964 27.1841 79.3125 27.1841H151.17C153.386 27.1841 155.178 28.9764 155.178 31.1925V142.922C155.178 145.122 153.37 146.914 151.17 146.914ZM79.3125 28.8135C78.0089 28.8135 76.9335 29.8726 76.9335 31.1925V142.922C76.9335 144.242 78.0089 145.301 79.3125 145.301H151.17C152.474 145.301 153.549 144.242 153.549 142.922V31.1925C153.549 29.8726 152.474 28.8135 151.17 28.8135H79.3125Z" fill="#C9D5FF"/>
<path d="M114.052 96.3202C104.34 96.2225 96.4051 104.011 96.2911 113.706C96.1933 123.418 103.982 131.353 113.677 131.467C123.388 131.565 131.324 123.776 131.438 114.081C131.552 104.37 123.763 96.418 114.052 96.3202Z" fill="#FF6600" fill-opacity="0.08"/>
<path d="M113.335 114.847L113.563 93.4854C125.164 93.8275 134.419 103.392 134.305 115.059L113.335 114.847Z" fill="#FF6600" fill-opacity="0.08"/>
<path d="M112.668 115.499L112.912 92.8171L113.58 92.8334C125.491 93.1756 135.072 103.148 134.958 115.075V115.727L112.668 115.499ZM113.988 114.211L133.622 114.423C133.41 103.718 124.872 94.8376 114.199 94.1858L113.988 114.211Z" fill="white"/>
<path d="M127.986 79.3857H140.647V54.8303H127.986V79.3857Z" fill="#FF6600" fill-opacity="0.08"/>
<path d="M128.031 73.8184H115.371V79.3747H128.031V73.8184Z" fill="#FFEDE0"/>
<path d="M99.0566 79.3875H111.717V57.7813H99.0566V79.3875Z" fill="#FF6600" fill-opacity="0.08"/>
<path d="M99.1087 66.7466H86.4481V79.3909H99.1087V66.7466Z" fill="#FF6600" fill-opacity="0.12"/>
<path d="M150.991 80.7434H79.6389V79.114H150.991V79.9287V80.7434Z" fill="#FF6600" fill-opacity="0.12"/>
<path d="M167.026 268.029V263.809H159.253V265.601V268.029L161.991 269.659H164.418L167.026 268.029Z" fill="#FFCEC8"/>
<path d="M167.025 268.03V271.402L147.277 271.354V271.077C147.277 270.343 147.717 269.708 148.385 269.463L159.253 265.585L160.915 267.59C160.915 267.606 163.473 269.529 167.025 268.03Z" fill="#426BFF"/>
<path d="M147.277 271.354V272.592H167.025V271.403L147.277 271.354Z" fill="#426BFF"/>
<path d="M206.752 267.015H214.671V263.821H206.752V267.015Z" fill="#FFCEC8"/>
<path d="M205.17 270.62H215.94L215.093 267.003H206.457L205.17 270.62Z" fill="#426BFF"/>
<path d="M204.453 272.575H216.673V271.158C216.673 270.62 216.233 270.197 215.712 270.197H205.43C204.892 270.197 204.469 270.636 204.469 271.158V272.575H204.453Z" fill="#426BFF"/>
<path d="M204.453 271.321V272.559L216.657 272.575V271.386L204.453 271.321Z" fill="#426BFF"/>
<path d="M210.368 135.345L217.211 263.809H204.811L192.623 160.08C192.493 158.842 191.483 157.913 190.277 157.913C189.136 157.913 188.159 158.76 187.963 159.917L169.111 263.809H157.46L170.626 135.345H210.368Z" fill="#426BFF"/>
<path d="M189.51 68.865C193.926 68.865 197.511 65.2802 197.511 60.8645V53.3691H181.493V60.8645C181.51 65.2802 185.094 68.865 189.51 68.865Z" fill="#FFCEC8"/>
<path d="M196.598 61.1249C196.598 62.2818 196.81 63.2269 197.934 63.2269C199.058 63.2269 200.671 62.2818 200.671 61.1249C200.671 59.968 199.759 59.0229 198.635 59.0229C197.51 59.0229 196.598 59.968 196.598 61.1249Z" fill="#FFCEC8"/>
<path d="M182.813 61.1249C182.813 62.2818 182.601 63.2269 181.477 63.2269C180.353 63.2269 178.74 62.2818 178.74 61.1249C178.74 59.968 179.652 59.0229 180.776 59.0229C181.901 59.0229 182.813 59.968 182.813 61.1249Z" fill="#FFCEC8"/>
<path d="M195.981 65.5569L197.236 73.9158C197.236 73.9158 194.677 78.1523 188.763 78.0546C182.848 77.9405 182.424 73.9158 182.424 73.9158L182.799 65.2473L195.981 65.5569Z" fill="#FFCEC8"/>
<path d="M195.98 65.5569C195.98 65.5569 194.66 68.7995 189.837 68.8646C185.014 68.9298 182.814 65.2473 182.814 65.2473C182.814 65.2473 184.15 68.9135 188.191 69.7608C189.348 70.0052 190.554 69.9075 191.694 69.5816C193.356 69.0928 195.589 68.001 195.98 65.5569Z" fill="#FFBDB5"/>
<path d="M197.512 59.3818V54.2328C197.512 54.2328 194.513 53.7603 192.053 56.2859C189.576 58.8115 181.511 55.9111 181.511 55.9111V59.17C181.511 59.17 179.751 58.6974 179.034 60.0336C179.034 60.0336 179.376 58.5508 178.04 57.2798C176.704 55.9926 177.649 51.6909 181.511 51.1695C181.511 51.1695 179.914 45.7435 184.786 45.5317C189.674 45.3199 191.857 48.7254 191.857 48.7254C191.857 48.7254 194.09 44.8636 196.599 46.4116C199.125 47.9595 201.748 50.3222 200.33 54.8846L199.353 59.17C199.369 59.17 198.131 58.73 197.512 59.3818Z" fill="#384B61"/>
<path d="M169.191 128.208L168.377 144.78L152.131 119.801C150.453 115.857 150.616 111.377 152.571 107.547L165.704 79.668L170.381 106.472L164.205 114.407L169.191 128.208Z" fill="#FF6652"/>
<path d="M196.288 70.7876L216.183 79.3421L211.393 153.872H205.967C200.199 153.872 195.571 149.098 195.767 143.33L197.999 73.1828L196.288 70.7876Z" fill="#FF6652"/>
<path d="M183.009 70.7876L181.494 73.1828L184.199 143.264C184.427 149.049 179.783 153.872 173.999 153.872H168.442L165.689 79.6517L183.009 70.7876Z" fill="#FF6652"/>
<path d="M183.009 70.7876H196.289L189.69 77.8756L183.009 70.7876Z" fill="#384B61"/>
<path d="M183.009 70.7876L189.787 74.9915L196.288 70.7876L197.983 73.1828L196.109 138.979H183.791L181.493 73.1828L183.009 70.7876Z" fill="#FDA74C"/>
<path d="M196.289 70.7876L196.566 72.0423L189.788 74.9915L182.912 71.7327L183.009 70.7876H196.289Z" fill="#FFCEC8"/>
<path d="M182.684 67.6428L189.853 75.3826L186.252 81.0204L181.071 74.3723L179.637 72.3356L182.684 67.6428Z" fill="#FF6652"/>
<path d="M196.387 67.7244L189.739 75.3827L193.34 81.0205L198.521 74.3724L200.004 72.2053L196.387 67.7244Z" fill="#FF6652"/>
<path d="M167.725 110.513C167.383 110.513 167.106 110.252 167.073 109.91L165.639 88.7114C165.623 88.3529 165.884 88.0433 166.242 88.0107C166.633 87.9618 166.91 88.2551 166.943 88.6136L168.377 109.812C168.393 110.171 168.132 110.48 167.774 110.513C167.758 110.513 167.741 110.513 167.725 110.513Z" fill="#E34934"/>
<path d="M224.12 151.46L225.798 156.463L240.87 156.495L232.935 153.758L231.338 149.847L224.12 151.46Z" fill="#FFCEC8"/>
<path d="M125.312 162.866H251.641C253.417 162.866 254.851 161.433 254.851 159.656C254.851 157.88 253.417 156.447 251.641 156.447H125.312C123.535 156.447 122.102 157.88 122.102 159.656C122.102 161.433 123.535 162.866 125.312 162.866Z" fill="#FF6652"/>
<path d="M125.947 272.918C125.914 272.918 125.866 272.918 125.833 272.901C125.393 272.836 125.083 272.429 125.149 271.973L140.889 163.209C140.954 162.769 141.378 162.443 141.818 162.524C142.258 162.589 142.567 162.997 142.502 163.453L126.762 272.217C126.697 272.624 126.354 272.918 125.947 272.918Z" fill="#426BFF"/>
<path d="M254.721 273.521C254.33 273.521 253.987 273.244 253.922 272.836L236.259 163.469C236.194 163.029 236.487 162.606 236.927 162.541C237.384 162.459 237.791 162.769 237.856 163.209L255.519 272.576C255.584 273.016 255.291 273.439 254.851 273.504C254.818 273.521 254.77 273.521 254.721 273.521Z" fill="#426BFF"/>
<path d="M227.297 119.621C226.661 114.456 216.184 79.342 216.184 79.342L211.263 106.472L215.5 121.365L222.767 152.666L233.766 150.955L227.297 119.621Z" fill="#FF6652"/>
<path d="M212.926 109.242C212.893 109.242 212.877 109.242 212.861 109.242C212.502 109.21 212.241 108.884 212.29 108.525L214.49 88.5974C214.523 88.239 214.881 87.9783 215.207 88.0271C215.565 88.0597 215.826 88.3856 215.777 88.7441L213.545 108.672C213.529 108.998 213.252 109.242 212.926 109.242Z" fill="#E34934"/>
<path d="M202.872 156.495H188.305V153.725H200.102C201.634 153.709 202.872 154.964 202.872 156.495Z" fill="#293545"/>
<path d="M190.065 156.495H148.026L141.345 135.427C140.742 133.553 142.143 131.63 144.115 131.63H180.044C181.315 131.63 182.439 132.445 182.814 133.667L190.065 156.495Z" fill="#293545"/>
<path d="M161.501 145.529C161.957 146.849 163.31 147.582 164.515 147.159C165.721 146.735 166.34 145.334 165.884 144.014C165.428 142.694 164.076 141.961 162.87 142.385C161.664 142.808 161.061 144.209 161.501 145.529Z" fill="#44576E"/>
<path d="M75.2713 258.366L81.6749 269.365L85.6181 269.463L88.3067 271.027C88.6 271.19 88.7955 271.5 88.8281 271.826C88.877 272.331 88.5185 272.722 88.0297 272.705L81.0557 272.526L76.1023 264.933C76.1023 264.933 75.0595 264.249 74.978 265.292C74.9128 266.123 75.3853 270.082 75.5809 271.695C75.6297 272.07 75.3853 272.38 75.0432 272.363C74.7173 272.347 74.424 272.07 74.3751 271.711L73.4137 264.444C73.4137 264.444 71.1651 259.491 75.2713 258.366Z" fill="#FF6652"/>
<path d="M81.6746 269.365L85.6178 269.463L81.7072 252.224L75.271 258.367L81.6746 269.365Z" fill="#FFCEC8"/>
<path d="M53.4355 192C54.2503 194.884 70.072 240.166 75.2698 258.367L82.0482 253.739C82.0482 253.739 72.0273 192.473 71.7014 191.902L53.4355 192Z" fill="#FFCEC8"/>
<path d="M45.322 258.318L51.6441 269.366L55.5873 269.496L58.2596 271.077C58.5529 271.256 58.7484 271.549 58.7647 271.875C58.8136 272.38 58.4551 272.771 57.9663 272.755L50.9924 272.51L46.0878 264.885C46.0878 264.885 45.045 264.184 44.9635 265.227C44.8983 266.058 45.3383 270.017 45.5175 271.647C45.5664 272.022 45.322 272.331 44.9798 272.315C44.6539 272.299 44.3606 272.005 44.3117 271.647L43.3993 264.38C43.3993 264.38 41.1995 259.41 45.322 258.318Z" fill="#FF6652"/>
<path d="M51.6276 269.365L55.5709 269.496L52.7845 252.224L45.3218 258.318L51.6276 269.365Z" fill="#FFCEC8"/>
<path d="M53.6163 219.114C53.6326 219.081 53.6326 219.049 53.6326 219.032C53.5837 206.193 57.7714 186.754 53.9911 183.707L37.371 191.805C37.5176 193.222 39.0167 204.465 40.7602 217.876C40.7602 217.957 40.7602 218.022 40.7602 218.104L53.6 219.163C53.6163 219.13 53.6163 219.13 53.6163 219.114Z" fill="#FFCEC8"/>
<path d="M52.7845 252.224C53.7947 232.915 52.8008 234.675 53.7296 217.875L40.8408 218.201C41.8837 232.915 44.8655 248.476 45.3054 258.318L52.7845 252.224Z" fill="#FFCEC8"/>
<path d="M28.7842 207.089C32.1082 203.211 31.5868 199.512 32.7763 194.135C35.1063 183.641 35.1552 172.822 35.7744 162.084C36.3936 151.362 37.8927 140.348 43.2372 131.027C43.6934 130.229 44.2148 129.414 45.0295 128.974C46.0724 128.42 47.3433 128.599 48.5002 128.811C52.2316 129.479 62.7414 130.881 62.7414 130.881C62.7414 130.881 65.4462 152.699 67.6296 160.21C67.6296 160.21 75.1739 183.69 76.4937 199.87C76.4937 199.87 66.1794 194.396 45.4206 206.193C45.4206 206.193 38.9681 208.963 32.5319 207.952L28.7842 207.089Z" fill="#FF6652"/>
<path d="M50.064 203.748L52.6385 195.406L54.219 204.107L50.064 203.748Z" fill="#FFCEC8"/>
<path d="M65.6579 68.0176C64.6803 65.215 63.556 64.221 62.9694 63.0479L50.3739 63.2923L48.7934 73.7369L46.5774 88.7927L57.1686 88.9394L57.5597 82.5846C57.5597 82.5846 57.6412 82.6009 57.7715 82.6335C58.6025 82.8779 59.4824 82.9268 60.3134 83.1386C61.2422 83.3668 62.1547 83.6763 63.116 83.7415C63.393 83.7578 63.6863 83.7578 63.9145 83.5949C64.0611 83.4808 64.1426 83.3016 64.224 83.1223C65.0713 81.2322 65.6091 79.1303 65.7068 77.0446C65.8535 73.8672 65.6579 68.0176 65.6579 68.0176Z" fill="#FFCEC8"/>
<path d="M54.2835 75.6107C53.0125 76.0018 51.8719 75.9203 51.3994 74.4049C50.9269 72.8896 51.3179 70.5106 52.5889 70.1196C53.8598 69.7285 55.2611 70.641 55.7337 72.1563C56.2062 73.6717 55.5544 75.2197 54.2835 75.6107Z" fill="#FFCEC8"/>
<path d="M45.779 69.0439C45.779 69.0439 45.4694 77.5332 36.6542 83.3828C27.8553 89.2325 28.7841 105.038 42.8135 107.221L42.5202 93.4853C42.5202 93.4853 43.5793 88.9066 46.7241 87.7986C46.7241 87.7986 52.7204 86.4787 53.1603 78.2827C53.1603 78.2827 52.2315 74.7795 55.9629 73.6063C59.7106 72.4331 61.8614 69.3046 61.3889 65.4429L53.4862 67.3493L45.779 69.0439Z" fill="#FF6652"/>
<path d="M42.2264 94.7892L43.2529 116.705L39.6356 131.549L62.7571 130.897C62.5779 126.628 65.0546 109.421 65.0546 109.421L66.2115 108.525C67.6291 107.434 68.8186 104.044 68.8186 104.044L61.0951 93.9908C61.0951 93.9908 59.0583 90.6831 55.327 91.0416L42.2264 94.7892Z" fill="#384B61"/>
<path d="M57.1352 88.6296L61.111 93.9742C61.111 93.9742 57.9499 96.3694 55.3428 91.0249C55.3428 91.0249 54.8214 89.5584 53.5342 88.8252L57.1352 88.6296Z" fill="#FFCEC8"/>
<path d="M85.5685 110.383L83.5806 106.472L57.6401 119.54L59.3999 125.569C60.0354 127.768 62.6588 128.648 64.5 127.296L85.5685 110.383Z" fill="#FFCEC8"/>
<path d="M53.2082 106.064C52.3609 106.032 51.6277 105.853 50.7804 105.755C48.0103 105.429 50.3241 107.368 48.1896 109.226L60.1007 126.872L70.0076 123.287L60.0844 104.24C57.738 105.559 55.7501 106.162 53.2082 106.064Z" fill="#FFCEC8"/>
<path d="M47.4585 87.5217C44.7862 88.1734 42.391 90.6176 42.2117 93.4691C42.114 94.9681 42.505 96.4672 42.8961 97.9174C43.6945 100.883 44.4929 103.832 45.2913 106.798C45.6987 108.281 46.0898 109.78 46.4808 111.262C46.5949 111.67 47.2955 113.218 47.0185 113.56C49.3975 110.48 53.1615 108.297 57.0721 109.03C57.9194 109.193 58.9133 109.633 59.7606 109.845C62.9869 110.611 62.0418 110.236 64.6978 108.476C63.1987 106.195 64.4208 104.011 62.9217 101.714C61.6345 99.7749 60.282 97.8522 58.9785 95.9458C56.5018 92.3122 54.1554 87.1958 48.9412 87.3424C48.4361 87.3261 47.931 87.4076 47.4585 87.5217Z" fill="#384B61"/>
<path d="M63.7522 109.666C63.7033 109.715 63.6382 109.747 63.573 109.764C63.3123 109.845 63.0353 109.698 62.9538 109.438L60.249 100.851C59.4017 98.1457 58.1144 95.6038 56.4524 93.3226L54.2853 90.3245C54.1223 90.1127 54.1712 89.7868 54.3993 89.6401C54.6112 89.4772 54.9207 89.5261 55.0837 89.7542L57.2508 92.7523C58.978 95.1313 60.2978 97.7547 61.194 100.574L63.8989 109.161C63.9478 109.34 63.8826 109.535 63.7522 109.666Z" fill="#212B38"/>
<path d="M45.7786 69.0438C45.7786 69.0438 45.355 61.63 51.6771 59.6584C57.983 57.6868 66.0649 59.4791 65.8531 66.0946C65.6413 72.7263 61.1604 77.1095 53.1599 78.2827L47.4569 80.2054L45.7786 69.0438Z" fill="#FF6652"/>
<path d="M83.5812 106.488L85.3084 104.516C85.3084 104.516 85.6342 103.131 87.0356 102.398C87.9969 101.909 89.4634 101.095 90.2781 100.638C90.6203 100.443 91.0439 100.573 91.2232 100.915L90.6203 101.567L95.753 99.3511C95.9811 99.2533 96.2418 99.3674 96.307 99.6118C96.3559 99.791 96.2907 99.9866 96.1277 100.084L92.3964 102.251C92.4452 102.268 92.7385 102.382 92.8689 102.724C92.983 103.05 92.8526 103.311 92.8363 103.359C92.7548 103.425 92.6571 103.49 92.5756 103.555C92.7874 103.636 92.9341 103.816 92.9504 104.028C92.9667 104.19 92.8852 104.321 92.8526 104.353C92.7059 104.516 92.5756 104.696 92.4289 104.859C92.6408 104.826 92.8526 104.924 92.9504 105.119C93.0318 105.315 92.9992 105.527 92.8363 105.673C92.3475 106.406 91.8586 107.123 91.3698 107.857L87.3288 109.323L85.5691 110.366L83.5812 106.488Z" fill="#FFCEC8"/>
<path d="M87.329 103.392C87.2801 103.392 87.2475 103.376 87.215 103.343C87.1498 103.278 87.1661 103.181 87.2312 103.115C87.2638 103.083 87.9482 102.48 89.0073 102.138C90.0013 101.812 90.4575 101.47 90.4575 101.47C90.5227 101.404 90.6367 101.421 90.6856 101.502C90.7345 101.567 90.7345 101.681 90.653 101.73C90.6367 101.747 90.1479 102.105 89.0888 102.447C88.0948 102.773 87.4268 103.343 87.4268 103.36C87.4105 103.376 87.3616 103.392 87.329 103.392Z" fill="#FF9D91"/>
<path d="M91.1094 103.246C91.0605 103.246 90.9953 103.213 90.979 103.164C90.9302 103.083 90.9464 102.985 91.0279 102.936L92.3152 102.105C92.3966 102.056 92.4944 102.073 92.5433 102.154C92.5922 102.235 92.5759 102.333 92.4944 102.382L91.2072 103.213C91.1746 103.246 91.142 103.246 91.1094 103.246Z" fill="#FF9D91"/>
<path d="M91.3861 104.826C91.3372 104.826 91.3046 104.81 91.272 104.777C91.2069 104.712 91.2069 104.614 91.272 104.549L92.4615 103.441C92.5267 103.376 92.6244 103.376 92.6896 103.457C92.7548 103.523 92.7548 103.62 92.6896 103.685L91.5001 104.793C91.4676 104.826 91.4187 104.826 91.3861 104.826Z" fill="#FF9D91"/>
<path d="M91.37 106.423C91.3374 106.423 91.3048 106.407 91.2722 106.39C91.207 106.341 91.1907 106.227 91.2396 106.162L92.2987 104.793C92.3476 104.728 92.4454 104.712 92.5268 104.761C92.592 104.81 92.6083 104.924 92.5594 104.989L91.5003 106.358C91.4677 106.39 91.4188 106.423 91.37 106.423Z" fill="#FF9D91"/>
<path d="M265.932 90.8621L263.243 86.0064L263.52 82.992C263.569 82.438 263.455 81.9003 263.178 81.4114L261.402 78.3481L261.809 87.3262L259.235 87.4892L257.898 78.1526L257.589 78.2992C256.204 78.9347 255.389 80.3849 255.552 81.884L255.797 84.1652C255.862 84.8006 256.106 85.4035 256.481 85.9086L259.023 90.6829L261.434 96.1251L265.932 90.8621Z" fill="#FFCEC8"/>
<path d="M262.412 87.4728L261.32 75.5454C261.32 74.9262 260.831 74.4048 260.212 74.3559L258.795 74.2256C258.012 74.1604 257.361 74.8285 257.475 75.6106L259.218 87.5054L262.412 87.4728Z" fill="#384B61"/>
<path d="M291.772 112.598L285.581 118.806C284.244 120.143 282.55 121.039 280.725 121.381C277.743 121.935 274.68 120.99 272.513 118.806L272.187 118.481C271.405 117.698 270.769 116.802 270.297 115.792L257.473 91.6766L264.871 88.4829L279.242 107.303L287.911 96.8093C287.927 96.8256 291.723 108.72 291.772 112.598Z" fill="#384B61"/>
<path d="M284.326 73.1015C285.19 72.2053 285.418 70.967 285.434 70.0219C285.369 69.7286 285.304 69.4516 285.238 69.142C283.658 66.7142 284.147 64.5307 284.147 64.5307L285.385 61.0764L300.197 58.29C301.142 59.1862 302.771 69.4353 302.771 69.4353L306.225 82.7151L294.885 84.8496L294.298 78.5275C294.298 78.5275 290.371 79.717 289.947 79.8473C287.487 80.5805 286.607 74.8613 286.558 74.6657V74.6983C284.098 74.9753 284.326 73.1015 284.326 73.1015Z" fill="#FFCEC8"/>
<path d="M297.231 72.7918C298.893 73.248 300.376 73.1014 300.913 71.1298C301.467 69.1582 300.864 66.0785 299.219 65.6223C297.557 65.1661 295.781 66.3881 295.227 68.376C294.673 70.3639 295.569 72.3355 297.231 72.7918Z" fill="#FFCEC8"/>
<path d="M291.365 66.274C290.355 65.166 289.849 63.6018 290.029 62.119C289.018 63.3085 287.666 64.1884 286.167 64.612C283.869 65.2638 281.963 64.1395 281.376 61.8094C280.969 60.1474 281.686 58.3387 282.908 57.1493C284.146 55.9598 285.808 55.3243 287.503 55.0147C288.66 54.8029 289.866 54.7214 290.974 54.2815C292.261 53.7601 292.864 52.6358 293.841 51.7233C296.106 49.5887 300.066 49.9309 302.298 52.098C304.531 54.2652 305.101 57.8173 304.156 60.7829C303.993 61.3043 303.781 61.8094 303.748 62.3634C303.716 62.9174 303.895 63.504 304.335 63.7973C305.052 64.2698 306.209 63.9114 306.714 64.5957C307.121 65.1497 306.747 65.9481 306.225 66.3881C305.704 66.828 305.036 67.1376 304.661 67.7079C304.205 68.3923 304.302 69.3862 304.889 69.9728C305.476 70.5594 306.47 70.6409 307.154 70.1683C307.74 71.9607 306.616 74.1278 304.824 74.6981C303.015 75.2684 300.864 74.1116 300.327 72.3029C300.05 71.3741 300.164 70.3639 300.05 69.3862C299.936 68.4249 299.463 67.3657 298.534 67.0724C297.247 66.6488 296.318 67.9035 295.096 67.9849C293.744 68.0664 292.228 67.2191 291.365 66.274Z" fill="#384B61"/>
<path d="M287.227 73.8347C287.227 73.8347 287.243 73.851 287.259 73.8999C287.341 74.0791 287.455 74.5354 287.471 75.1708L287.911 75.4478L288.449 74.9427L287.227 73.8347Z" fill="#FFCEC8"/>
<path d="M355.271 256.575L348.819 246.326L340.672 251.996L348.461 262.962L355.271 256.575Z" fill="#FFCEC8"/>
<path d="M351.199 250.09L355.272 256.575L348.462 262.962L343.948 256.607L351.199 250.09Z" fill="#FFCEC8"/>
<path d="M340.704 272.592C341.095 272.771 341.551 272.739 341.893 272.478L355.955 262.049L356.069 261.952C356.574 261.528 356.9 260.925 356.982 260.273C357.047 259.671 356.884 259.051 356.558 258.546L355.466 256.933L354.016 254.668C354.016 254.668 353.315 259.345 350.985 257.927C348.558 256.461 346.537 260.273 346.537 260.273L340.101 271.207C339.922 271.745 340.182 272.347 340.704 272.592Z" fill="#426BFF"/>
<path d="M286.852 143.574C286.852 143.574 306.633 146.539 314.52 143.248L317.827 142.955L325.518 203.406L308.849 212.612L286.852 143.574Z" fill="#293545"/>
<path d="M324.721 202.315L352.65 251.67L341.798 259.784L308.834 212.629L324.721 202.315Z" fill="#293545"/>
<path d="M283.447 255.971L293.696 256.151L294.494 265.943L294.38 267.622L294.005 267.671C293.06 269.512 290.893 270.571 288.759 269.919L285.109 268.828L283.447 255.971Z" fill="#FFCEC8"/>
<path d="M273.214 272.102C273.425 272.494 273.817 272.722 274.256 272.705L292.636 272.428H292.783C293.435 272.379 294.738 272.086 295.195 271.597C295.602 271.141 294.51 265.357 294.51 265.357C294.51 265.357 291.202 268.746 290.143 266.22C289.035 263.613 285.157 265.52 285.157 265.52L273.54 270.62C273.067 270.962 272.92 271.597 273.214 272.102Z" fill="#426BFF"/>
<path d="M317.81 142.971L301.809 189.996L296.139 209.044L277.286 203.634L287.877 132.575C294.02 136.307 308.864 140.592 317.81 142.971Z" fill="#314154"/>
<path d="M295.553 262.375L281.866 263.108L277.304 203.635L296.14 209.044L295.553 262.375Z" fill="#314154"/>
<path d="M289.638 84.9145C291.496 83.0733 292.555 82.7474 294.739 80.9713C294.755 80.955 294.755 80.955 294.771 80.9387C294.999 80.7432 295.227 80.5476 295.472 80.3684L306.878 80.4173C312.45 81.1831 317.176 84.996 318.968 90.3405C320.467 94.8377 319.946 100.801 320.174 108.199C320.744 126.057 325.649 158.711 325.649 158.711C325.649 158.711 307.497 164.593 295.407 157.212C290.323 154.1 289.638 84.9145 289.638 84.9145Z" fill="#384B61"/>
<path d="M285.385 142.857C287.829 146.491 289.442 148.674 293.092 150.352C290.273 125.373 289.426 104.272 295.162 80.939C286.77 88.7113 286.249 100.655 285.369 109.829L285.385 142.857Z" fill="#426BFF"/>
<path d="M307.302 79.8636C307.302 79.8636 303.945 85.6806 296.401 86.7886C293.729 87.1797 291.692 84.8822 293.077 82.9921C293.712 82.1285 294.185 81.0368 295.602 79.7658L301.387 77.615L307.302 79.8636Z" fill="#FFCEC8"/>
<path d="M325.013 107.971L319.717 90.5525C318.039 86.5767 313.591 82.2261 309.273 82.1121L304.287 84.7028L307.741 114.815C308.556 113.886 313.542 110.285 318.121 109.389C322.536 108.525 325.013 107.971 325.013 107.971Z" fill="#384B61"/>
<path d="M306.438 77.6311L307.937 80.9388C307.937 80.9388 294.771 101.144 294.771 118.139V89.363L295.13 84.2303L306.438 77.6311Z" fill="#384B61"/>
<path d="M297.916 88.4994L293.777 84.3932L306.437 77.6311L307.774 80.5804L297.916 88.4994Z" fill="white"/>
<path d="M293.776 84.3933L293.695 87.3914L295.992 86.5604L293.776 84.3933Z" fill="#384B61"/>
<path d="M291.04 85.8923C291.04 85.8923 282.633 94.6097 279.178 108.623C278.608 110.937 277.06 112.941 274.877 113.902C273.378 114.57 271.553 114.766 269.662 113.593L265.719 115.646L268.88 118.888C268.88 118.888 281.508 121.023 283.317 111.214C285.126 101.404 289.623 90.3895 293.713 87.3914L291.04 85.8923Z" fill="#FF6652"/>
<path d="M293.778 84.3933L292.637 83.6926L291.04 85.8924L290.079 87.0818L292.588 88.3854L293.696 87.3914L293.778 84.3933Z" fill="#FF462E"/>
<path d="M301.599 110.155L298.243 117.992L283.888 105.592C283.692 105.364 283.659 104.989 283.79 104.696C283.936 104.338 284.295 104.175 284.588 104.305C283.904 103.718 283.236 103.148 282.551 102.562C282.535 102.562 282.307 102.138 282.454 101.682C282.6 101.291 282.975 101.014 283.366 101.095C283.105 100.9 282.845 100.688 282.584 100.492C282.372 100.101 282.372 99.5472 282.633 99.1398C282.861 98.7325 283.22 98.6021 283.627 98.6999C284.002 99.0095 284.393 99.3028 284.751 99.5961L287.195 101.519L285.37 98.8791C285.093 98.4555 285.044 98.0318 285.37 97.6082C285.696 97.2171 286.12 97.2171 286.478 97.543C288.173 99.2539 290.031 100.655 291.741 102.366L291.09 100.916C290.927 100.606 290.845 100.232 290.862 99.8568C290.894 99.3028 291.106 98.7976 291.432 98.4555L293.208 101.323L294.935 104.175C295.294 104.778 295.522 104.745 295.457 105.511L301.599 110.155Z" fill="#FFCEC8"/>
<path d="M291.04 112.941L296.678 105.136L309.697 113.593L307.937 107.776L324.965 107.825C326.741 113.479 327.441 119.035 326.969 124.51C326.92 125.113 326.692 125.699 326.35 126.204C322.129 132.298 313.51 133.292 308.019 128.306L291.04 112.941Z" fill="#384B61"/>
<path d="M291.154 112.729L289.329 111.132L295.358 104.191L296.678 105.136L291.154 112.729Z" fill="white"/>
<path d="M316.23 132.038C318.919 132.038 320.76 131.125 320.89 131.06C321.119 130.946 321.216 130.669 321.102 130.441C320.988 130.213 320.711 130.115 320.483 130.229C320.434 130.262 315.872 132.494 310.772 129.643C305.509 126.71 296.449 117.194 296.351 117.096C296.172 116.917 295.879 116.9 295.699 117.08C295.52 117.259 295.504 117.552 295.683 117.731C296.058 118.123 304.938 127.443 310.332 130.457C312.466 131.679 314.519 132.038 316.23 132.038Z" fill="#212B38"/>
<path d="M310.528 114.358C310.626 114.358 310.724 114.326 310.805 114.261C310.952 114.146 311.033 113.951 310.968 113.755L306.194 97.3471C306.129 97.1027 305.868 96.956 305.624 97.0375C305.379 97.1027 305.233 97.3634 305.314 97.6078L309.746 112.843L298.226 105.576C298.014 105.445 297.721 105.511 297.591 105.722C297.46 105.934 297.525 106.227 297.737 106.358L310.3 114.277C310.365 114.342 310.447 114.358 310.528 114.358Z" fill="#212B38"/>
<path d="M264.888 88.4993L264.057 87.5054L257.49 90.0473L258.273 91.3508L264.888 88.4993Z" fill="white"/>
<path d="M340.655 22.2795L304.628 2.17237C300.31 -0.239175 294.852 1.30878 292.44 5.62675L284.586 19.6887C282.175 24.0066 283.723 29.4652 288.041 31.8768L310.103 44.1952L311.456 51.0225C311.798 52.7171 313.558 53.6947 315.171 53.0919L321.688 50.664L324.067 51.9838C328.385 54.3954 333.844 52.8474 336.255 48.5295L344.109 34.4675C346.521 30.1333 344.973 24.691 340.655 22.2795Z" fill="white"/>
<path d="M314.21 54.0697C313.607 54.0697 313.004 53.923 312.45 53.6135C311.521 53.092 310.869 52.2122 310.674 51.1693L309.387 44.7168L287.65 32.5939C282.941 29.9705 281.246 24.0068 283.886 19.2978L291.74 5.23588C294.363 0.52685 300.327 -1.16775 305.036 1.47192L341.079 21.579C343.36 22.8499 345.006 24.9356 345.723 27.4449C346.44 29.9542 346.13 32.5939 344.859 34.8751L337.005 48.937C334.382 53.646 328.418 55.3406 323.709 52.701L321.656 51.5604L315.481 53.8579C315.057 54.0045 314.633 54.0697 314.21 54.0697ZM300.278 1.84668C297.427 1.84668 294.64 3.34575 293.158 6.01801L285.304 20.0799C283.12 24.0068 284.522 28.9766 288.448 31.16L310.511 43.4784C310.723 43.5925 310.869 43.8043 310.918 44.0325L312.271 50.8597C312.385 51.43 312.743 51.9189 313.248 52.1959C313.753 52.4729 314.356 52.5217 314.894 52.3262L321.412 49.8984C321.64 49.8169 321.884 49.8332 322.096 49.9473L324.475 51.2671C328.402 53.4505 333.372 52.0492 335.555 48.1223L343.409 34.0604C344.468 32.154 344.729 29.9705 344.126 27.8686C343.539 25.7829 342.154 24.0394 340.264 22.9803L304.221 2.87322C302.983 2.17257 301.614 1.84668 300.278 1.84668Z" fill="#FF6600" fill-opacity="0.08"/>
<path d="M300.946 12.2585L333.42 30.3777L300.946 12.2585Z" fill="white"/>
<path d="M333.421 31.1923C333.29 31.1923 333.144 31.1598 333.03 31.0946L300.555 12.9591C300.164 12.7473 300.017 12.2421 300.246 11.8511C300.457 11.46 300.963 11.3134 301.354 11.5415L333.828 29.6607C334.219 29.8725 334.366 30.3776 334.138 30.7687C333.975 31.0294 333.698 31.1923 333.421 31.1923Z" fill="#FF6600" fill-opacity="0.08"/>
<path d="M298.241 17.0977L330.715 35.2168L298.241 17.0977Z" fill="white"/>
<path d="M330.715 36.0318C330.585 36.0318 330.438 35.9992 330.324 35.934L297.85 17.8148C297.459 17.603 297.312 17.0979 297.54 16.7068C297.752 16.3157 298.257 16.1691 298.648 16.3972L331.123 34.5164C331.514 34.7282 331.661 35.2333 331.432 35.6244C331.269 35.8851 330.992 36.0318 330.715 36.0318Z" fill="#FF6600" fill-opacity="0.08"/>
<path d="M295.535 21.9373L314.844 32.7077L295.535 21.9373Z" fill="white"/>
<path d="M314.844 33.5227C314.714 33.5227 314.567 33.4901 314.453 33.4249L295.145 22.6544C294.753 22.4426 294.607 21.9375 294.835 21.5464C295.047 21.1553 295.552 21.0087 295.943 21.2368L315.252 32.0073C315.643 32.2191 315.789 32.7242 315.561 33.1153C315.398 33.376 315.121 33.5227 314.844 33.5227Z" fill="#FF6600" fill-opacity="0.08"/>
<path d="M387.046 274.286H-11.1853C-11.6415 274.286 -12 273.928 -12 273.472C-12 273.015 -11.6415 272.657 -11.1853 272.657H387.046C387.502 272.657 387.86 273.015 387.86 273.472C387.86 273.928 387.502 274.286 387.046 274.286Z" fill="#FF6600" fill-opacity="0.08"/>
</svg>
