<svg width="375" height="250" viewBox="0 0 375 250" fill="none" xmlns="http://www.w3.org/2000/svg">
<g clip-path="url(#clip0_1_1329)">
<path d="M310.02 41.7671C310.902 41.7671 311.617 41.0507 311.617 40.167C311.617 39.2833 310.902 38.5669 310.02 38.5669C309.138 38.5669 308.423 39.2833 308.423 40.167C308.423 41.0507 309.138 41.7671 310.02 41.7671Z" fill="#FF6600" fill-opacity="0.08"/>
<path d="M321.508 41.7671C322.39 41.7671 323.105 41.0507 323.105 40.167C323.105 39.2833 322.39 38.5669 321.508 38.5669C320.626 38.5669 319.911 39.2833 319.911 40.167C319.911 41.0507 320.626 41.7671 321.508 41.7671Z" fill="#FF6600" fill-opacity="0.08"/>
<path d="M332.981 41.7671C333.863 41.7671 334.578 41.0507 334.578 40.167C334.578 39.2833 333.863 38.5669 332.981 38.5669C332.098 38.5669 331.383 39.2833 331.383 40.167C331.383 41.0507 332.098 41.7671 332.981 41.7671Z" fill="#FF6600" fill-opacity="0.08"/>
<path d="M344.468 41.7671C345.351 41.7671 346.066 41.0507 346.066 40.167C346.066 39.2833 345.351 38.5669 344.468 38.5669C343.586 38.5669 342.871 39.2833 342.871 40.167C342.871 41.0507 343.586 41.7671 344.468 41.7671Z" fill="#FF6600" fill-opacity="0.08"/>
<path d="M310.02 50.8754C310.902 50.8754 311.617 50.159 311.617 49.2753C311.617 48.3916 310.902 47.6752 310.02 47.6752C309.138 47.6752 308.423 48.3916 308.423 49.2753C308.423 50.159 309.138 50.8754 310.02 50.8754Z" fill="#FF6600" fill-opacity="0.08"/>
<path d="M321.508 50.8754C322.39 50.8754 323.105 50.159 323.105 49.2753C323.105 48.3916 322.39 47.6752 321.508 47.6752C320.626 47.6752 319.911 48.3916 319.911 49.2753C319.911 50.159 320.626 50.8754 321.508 50.8754Z" fill="#FF6600" fill-opacity="0.08"/>
<path d="M332.981 50.8754C333.863 50.8754 334.578 50.159 334.578 49.2753C334.578 48.3916 333.863 47.6752 332.981 47.6752C332.098 47.6752 331.383 48.3916 331.383 49.2753C331.383 50.159 332.098 50.8754 332.981 50.8754Z" fill="#FF6600" fill-opacity="0.08"/>
<path d="M344.468 50.8754C345.351 50.8754 346.066 50.159 346.066 49.2753C346.066 48.3916 345.351 47.6752 344.468 47.6752C343.586 47.6752 342.871 48.3916 342.871 49.2753C342.871 50.159 343.586 50.8754 344.468 50.8754Z" fill="#FF6600" fill-opacity="0.08"/>
<path d="M311.617 58.3835C311.617 59.2758 310.896 59.9836 310.02 59.9836C309.129 59.9836 308.423 59.2605 308.423 58.3835C308.423 57.4911 309.145 56.7834 310.02 56.7834C310.896 56.768 311.617 57.4911 311.617 58.3835Z" fill="#FF6600" fill-opacity="0.08"/>
<path d="M323.105 58.3835C323.105 59.2758 322.383 59.9836 321.508 59.9836C320.617 59.9836 319.911 59.2605 319.911 58.3835C319.911 57.4911 320.633 56.7834 321.508 56.7834C322.383 56.768 323.105 57.4911 323.105 58.3835Z" fill="#FF6600" fill-opacity="0.08"/>
<path d="M334.593 58.3835C334.593 59.2758 333.871 59.9836 332.996 59.9836C332.105 59.9836 331.399 59.2605 331.399 58.3835C331.399 57.4911 332.121 56.7834 332.996 56.7834C333.871 56.768 334.593 57.4911 334.593 58.3835Z" fill="#FF6600" fill-opacity="0.08"/>
<path d="M346.081 58.3835C346.081 59.2758 345.359 59.9836 344.484 59.9836C343.608 59.9836 342.886 59.2605 342.886 58.3835C342.886 57.4911 343.608 56.7834 344.484 56.7834C345.359 56.7834 346.081 57.4911 346.081 58.3835Z" fill="#FF6600" fill-opacity="0.08"/>
<path d="M310.02 69.0919C310.902 69.0919 311.617 68.3755 311.617 67.4918C311.617 66.6081 310.902 65.8917 310.02 65.8917C309.138 65.8917 308.423 66.6081 308.423 67.4918C308.423 68.3755 309.138 69.0919 310.02 69.0919Z" fill="#FF6600" fill-opacity="0.08"/>
<path d="M321.508 69.0919C322.39 69.0919 323.105 68.3755 323.105 67.4918C323.105 66.6081 322.39 65.8917 321.508 65.8917C320.626 65.8917 319.911 66.6081 319.911 67.4918C319.911 68.3755 320.626 69.0919 321.508 69.0919Z" fill="#FF6600" fill-opacity="0.08"/>
<path d="M332.981 69.0919C333.863 69.0919 334.578 68.3755 334.578 67.4918C334.578 66.6081 333.863 65.8917 332.981 65.8917C332.098 65.8917 331.383 66.6081 331.383 67.4918C331.383 68.3755 332.098 69.0919 332.981 69.0919Z" fill="#FF6600" fill-opacity="0.08"/>
<path d="M344.468 69.0919C345.351 69.0919 346.066 68.3755 346.066 67.4918C346.066 66.6081 345.351 65.8917 344.468 65.8917C343.586 65.8917 342.871 66.6081 342.871 67.4918C342.871 68.3755 343.586 69.0919 344.468 69.0919Z" fill="#FF6600" fill-opacity="0.08"/>
<path d="M300.421 124.511H83.1502C82.7202 124.511 82.3823 124.172 82.3823 123.741V0.995353C82.3823 0.564557 82.7202 0.226074 83.1502 0.226074H300.421C300.851 0.226074 301.189 0.564557 301.189 0.995353V123.741C301.189 124.172 300.836 124.511 300.421 124.511ZM83.9181 122.972H299.654V1.76463H83.9181V122.972Z" fill="#FF6600" fill-opacity="0.08"/>
<path d="M302.034 130.711H81.5376C79.4028 130.711 77.6674 128.972 77.6674 126.834C77.6674 124.695 79.4028 122.957 81.5376 122.957H302.019C304.153 122.957 305.889 124.695 305.889 126.834C305.889 128.972 304.153 130.711 302.034 130.711ZM81.5376 124.511C80.2475 124.511 79.2032 125.557 79.2032 126.849C79.2032 128.142 80.2475 129.188 81.5376 129.188H302.019C303.309 129.188 304.353 128.142 304.353 126.849C304.353 125.557 303.309 124.511 302.019 124.511H81.5376Z" fill="#FF6600" fill-opacity="0.08"/>
<path d="M101.795 30.751C106.218 25.4584 112.715 22.4274 119.61 22.4274C123.266 22.4274 126.905 23.3044 130.146 24.9507L119.749 45.3981C119.718 45.3827 119.687 45.3673 119.61 45.3673C119.564 45.3673 119.457 45.3673 119.349 45.4904L101.795 30.751Z" fill="#FF6600" fill-opacity="0.08"/>
<path d="M96.3735 45.7058H119.272C119.272 45.8904 119.411 45.9828 119.457 46.0135L108.983 66.4148C101.211 62.3991 96.3735 54.4602 96.3735 45.7058Z" fill="#FF6600" fill-opacity="0.08"/>
<path d="M119.61 68.9841V46.0442C119.749 46.0289 119.948 45.9365 119.948 45.7058C119.948 45.6288 119.933 45.5827 119.902 45.5211L138.762 32.5049C141.45 36.3975 142.863 40.967 142.863 45.7058C142.863 57.5988 133.97 67.5379 122.175 68.8456C121.315 68.938 120.455 68.9841 119.61 68.9841Z" fill="#FF6600" fill-opacity="0.08"/>
<path d="M126.921 76.3539H105.097C104.667 76.3539 104.329 76.0154 104.329 75.5846C104.329 75.1538 104.667 74.8153 105.097 74.8153H126.905C127.335 74.8153 127.673 75.1538 127.673 75.5846C127.689 76.0154 127.335 76.3539 126.921 76.3539Z" fill="#FF6600" fill-opacity="0.08"/>
<path d="M135.414 82.385H105.097C104.667 82.385 104.329 82.0465 104.329 81.6157C104.329 81.1849 104.667 80.8464 105.097 80.8464H135.414C135.844 80.8464 136.182 81.1849 136.182 81.6157C136.182 82.0465 135.844 82.385 135.414 82.385Z" fill="#FF6600" fill-opacity="0.08"/>
<path d="M124.694 88.4161H105.097C104.667 88.4161 104.329 88.0776 104.329 87.6468C104.329 87.216 104.667 86.8776 105.097 86.8776H124.694C125.124 86.8776 125.462 87.216 125.462 87.6468C125.462 88.0623 125.124 88.4161 124.694 88.4161Z" fill="#FF6600" fill-opacity="0.08"/>
<path d="M211.375 95.3243C211.375 96.232 210.638 96.9705 209.732 96.9705C208.826 96.9705 208.088 96.232 208.088 95.3243C208.088 94.4165 208.826 93.678 209.732 93.678C210.653 93.678 211.375 94.4165 211.375 95.3243Z" fill="#FF6600" fill-opacity="0.08"/>
<path d="M246.13 95.3243C246.13 96.232 245.393 96.9705 244.487 96.9705C243.581 96.9705 242.844 96.232 242.844 95.3243C242.844 94.4165 243.581 93.678 244.487 93.678C245.393 93.678 246.13 94.4165 246.13 95.3243Z" fill="#FF6600" fill-opacity="0.08"/>
<path d="M272.869 75.5076H199.012C198.843 75.5076 198.705 75.3692 198.705 75.1999C198.705 75.0307 198.843 74.8922 199.012 74.8922H272.869C273.038 74.8922 273.176 75.0307 273.176 75.1999C273.176 75.3692 273.038 75.5076 272.869 75.5076Z" fill="#FF6600" fill-opacity="0.08"/>
<path d="M272.869 62.7838H199.012C198.843 62.7838 198.705 62.6453 198.705 62.476C198.705 62.3068 198.843 62.1683 199.012 62.1683H272.869C273.038 62.1683 273.176 62.3068 273.176 62.476C273.176 62.6453 273.038 62.7838 272.869 62.7838Z" fill="#FF6600" fill-opacity="0.08"/>
<path d="M272.869 50.9523H199.012C198.843 50.9523 198.705 50.8138 198.705 50.6446C198.705 50.4753 198.843 50.3369 199.012 50.3369H272.869C273.038 50.3369 273.176 50.4753 273.176 50.6446C273.176 50.8138 273.038 50.9523 272.869 50.9523Z" fill="#FF6600" fill-opacity="0.08"/>
<path d="M272.869 40.2747H199.012C198.843 40.2747 198.705 40.1363 198.705 39.967C198.705 39.7978 198.843 39.6593 199.012 39.6593H272.869C273.038 39.6593 273.176 39.7978 273.176 39.967C273.176 40.1363 273.038 40.2747 272.869 40.2747Z" fill="#FF6600" fill-opacity="0.08"/>
<path d="M272.869 27.5508H199.012C198.843 27.5508 198.705 27.4124 198.705 27.2431C198.705 27.0739 198.843 26.9354 199.012 26.9354H272.869C273.038 26.9354 273.176 27.0739 273.176 27.2431C273.176 27.4124 273.038 27.5508 272.869 27.5508Z" fill="#FF6600" fill-opacity="0.08"/>
<path d="M209.732 50.5676H203.143V86.2621H209.732V50.5676Z" fill="#FF6600" fill-opacity="0.08"/>
<path d="M220.851 44.8596H214.262V86.2622H220.851V44.8596Z" fill="#FF6600" fill-opacity="0.08"/>
<path d="M231.97 36.4899H225.382V86.2622H231.97V36.4899Z" fill="#FF6600" fill-opacity="0.08"/>
<path d="M243.089 60.9529H236.501V86.2621H243.089V60.9529Z" fill="#FF6600" fill-opacity="0.08"/>
<path d="M254.209 37.7207H247.62V86.2621H254.209V37.7207Z" fill="#FF6600" fill-opacity="0.08"/>
<path d="M265.328 63.6608H258.739V86.2622H265.328V63.6608Z" fill="#FF6600" fill-opacity="0.08"/>
<path d="M272.869 86.5699H199.012C198.843 86.5699 198.705 86.4314 198.705 86.2622C198.705 86.0929 198.843 85.9545 199.012 85.9545H272.869C273.038 85.9545 273.176 86.0929 273.176 86.2622C273.176 86.4314 273.038 86.5699 272.869 86.5699Z" fill="#FF6600" fill-opacity="0.08"/>
<path d="M232.032 96.0936H214.262C213.832 96.0936 213.495 95.7551 213.495 95.3243C213.495 94.8935 213.832 94.555 214.262 94.555H232.032C232.462 94.555 232.8 94.8935 232.8 95.3243C232.8 95.7397 232.462 96.0936 232.032 96.0936Z" fill="#FF6600" fill-opacity="0.08"/>
<path d="M266.388 96.0936H248.618C248.188 96.0936 247.851 95.7551 247.851 95.3243C247.851 94.8935 248.188 94.555 248.618 94.555H266.388C266.818 94.555 267.156 94.8935 267.156 95.3243C267.156 95.7397 266.818 96.0936 266.388 96.0936Z" fill="#FF6600" fill-opacity="0.08"/>
<path d="M176.666 243.749V239.625H184.514V241.379V243.749L181.749 245.349H179.292L176.666 243.749Z" fill="#FFCEC8"/>
<path d="M176.666 243.749V247.057L196.6 247.011V246.734C196.6 246.026 196.155 245.395 195.479 245.149L184.514 241.364L182.84 243.333C182.84 243.333 180.244 245.226 176.666 243.749Z" fill="#426BFF"/>
<path d="M196.6 247.01V248.226H176.666V247.072L196.6 247.01Z" fill="#426BFF"/>
<path d="M138.746 111.541L139.269 170.775L142.402 239.656H154.166L158.804 133.25C158.85 132.357 159.541 131.65 160.386 131.65C161.185 131.65 161.86 132.28 161.968 133.111L174.807 239.641H186.049V111.541H138.746Z" fill="#426BFF"/>
<path d="M164.886 57.4604C164.886 57.4604 169.616 57.9527 170.108 53.7832C170.599 49.6137 170.768 43.7211 170.768 43.7211H152.891V60.8144H164.886V57.4604Z" fill="#FFCEC8"/>
<path d="M166.069 50.5676C166.069 50.5676 163.197 51.5523 163.012 48.229C163.012 48.229 163.442 46.2596 165.577 47.2443C165.577 47.2443 165.301 44.198 170.707 45.2904C171.152 45.3827 171.813 43.4902 171.874 43.2441C172.749 39.69 170.43 35.9513 167.113 34.7051C165.224 33.9974 162.936 33.6896 160.924 33.9974C160.094 34.1204 159.265 34.3512 158.528 34.7512C158.052 34.9974 156.577 35.8898 156.577 36.5206V34.2435C153.767 34.2435 151.494 36.5206 151.494 39.3361V54.614H159.572C161.584 54.614 163.488 53.7063 164.763 52.1523L166.069 50.5676Z" fill="#384B61"/>
<path d="M133.678 62.9069C135.982 60.5529 139.192 59.3066 142.494 59.4759L181.473 61.5529L208.641 63.9069L220.267 41.5209L228.622 44.6596L218.394 70.4766C217.073 73.7998 214.477 76.4462 211.175 77.8155C209.578 78.4771 207.858 78.8155 206.138 78.8155H186.817L187.34 119.572H137.303V101.078C133.479 101.078 130.376 97.9706 130.376 94.1396V70.9689C130.376 67.9533 131.559 65.0609 133.678 62.9069Z" fill="#FF6652"/>
<path d="M137.303 101.078V72.1536L135.706 100.878L137.303 101.078Z" fill="#FF361C"/>
<path d="M152.876 60.0298V58.722L164.886 59.3836V60.8144L152.876 60.0298Z" fill="#FF6652"/>
<path d="M152.339 239.656H144.352V242.779H152.339V239.656Z" fill="#FFCEC8"/>
<path d="M153.936 246.318H143.062L143.922 242.779H152.63L153.936 246.318Z" fill="#426BFF"/>
<path d="M154.673 248.226H142.34V246.857C142.34 246.318 142.77 245.887 143.308 245.887H153.721C154.258 245.887 154.688 246.318 154.688 246.857V248.226H154.673Z" fill="#426BFF"/>
<path d="M154.673 247.01V248.226H142.34V247.072L154.673 247.01Z" fill="#426BFF"/>
<path d="M226.748 43.9672L227.163 42.244L229.574 37.613C229.882 37.3053 229.82 36.7975 229.528 36.5821C229.267 36.3821 228.853 36.4283 228.607 36.7206C228.806 36.259 228.653 35.7667 228.315 35.5513C227.962 35.3359 227.547 35.5205 227.516 35.5359C227.67 35.0128 227.808 34.5051 227.962 33.982C227.977 33.9204 228.008 33.6127 227.808 33.3512C227.609 33.105 227.271 32.9973 226.933 33.0742C227.501 31.9049 228.054 30.7356 228.622 29.5663C228.76 29.3509 228.714 29.0586 228.515 28.8894C228.315 28.7201 228.008 28.7355 227.824 28.9201C226.518 31.028 225.213 33.1512 223.907 35.259L222.878 36.7206L222.233 39.69L221.02 41.8748L226.748 43.9672Z" fill="#FFCEC8"/>
<path d="M226.057 35.1051C226.027 35.1051 226.011 35.1051 225.981 35.0897C225.904 35.0436 225.873 34.9513 225.919 34.8897L226.795 33.1819C226.825 33.105 226.933 33.0742 226.994 33.1204C227.071 33.1665 227.102 33.2589 227.056 33.3204L226.18 35.0282C226.165 35.0743 226.103 35.1051 226.057 35.1051Z" fill="#FFABA1"/>
<path d="M164.886 57.4603C164.886 57.4603 163.765 57.9681 160.985 55.6448C160.985 55.6448 161.907 58.3373 164.886 58.6143V57.4603Z" fill="#FF9B8F"/>
<path d="M138.808 119.572H186.034L138.823 121.48L138.808 119.572Z" fill="#2453FF"/>
<path d="M291.16 94.0934C291.16 94.0934 286.876 97.2474 286.922 102.863C286.968 108.464 287.382 109.387 283.251 111.002C279.104 112.618 277.845 116.049 278.168 118.249C278.49 120.449 279.427 123.095 286.2 122.711C286.2 122.711 286.676 118.603 287.828 117.433C288.98 116.279 291.345 114.141 297.073 112.695L297.427 108.248C297.427 108.248 293.034 108.325 291.821 104.525L291.16 94.0934Z" fill="#FDA74C"/>
<path d="M291.56 102.848C291.406 97.3706 291.068 92.8626 291.068 92.8626C291.068 92.8626 303.555 89.447 306.427 97.8321C306.427 97.8321 309.099 97.5552 309.037 100.032C308.976 102.494 306.38 102.694 306.38 102.694L307.087 111.587C307.087 111.587 306.058 115.787 300.821 116.141C300.821 116.141 295.154 116.141 296.044 112.833L297.089 112.71L297.442 108.264C297.427 108.264 291.713 108.31 291.56 102.848Z" fill="#FFCEC8"/>
<path d="M306.426 97.8321C306.426 97.8321 298.855 101.802 295.077 93.4165C295.077 93.4165 293.556 96.6628 291.099 96.6628C291.099 96.6628 290.945 91.2009 290.945 91.1702C290.869 88.4008 293.679 86.893 295.952 86.2929C298.839 85.5237 302.74 85.6929 305.167 87.6469C307.317 89.3854 308.269 92.2625 308.684 94.8935C308.684 94.8935 313.752 94.9242 314.612 100.34L314.935 104.848C314.935 104.848 325.486 103.186 327.359 109.987C328.511 114.156 327.728 119.126 323.274 119.495L322.46 117.51C321.738 115.756 320.341 113.972 318.667 113.048C316.993 112.11 315.288 111.633 313.614 111.587H307.071L306.365 102.694C306.365 102.694 308.73 102.448 309.022 100.032C309.053 100.017 308.884 97.6475 306.426 97.8321Z" fill="#FDA74C"/>
<path d="M297.427 108.263C297.427 108.263 300.759 108.51 302.28 105.679C302.28 105.679 301.619 109.479 297.288 110.048L297.427 108.263Z" fill="#FF9B8F"/>
<path d="M316.24 244.287C316.24 246.395 317.945 248.103 320.049 248.103C322.153 248.103 323.858 246.395 323.858 244.287C323.858 242.18 322.153 240.472 320.049 240.472C317.945 240.472 316.24 242.18 316.24 244.287Z" fill="#426BFF"/>
<path d="M320.479 241.795H289.271C288.841 241.795 288.504 241.456 288.504 241.025C288.504 240.595 288.841 240.256 289.271 240.256H320.479C320.909 240.256 321.247 240.595 321.247 241.025C321.247 241.456 320.894 241.795 320.479 241.795Z" fill="#426BFF"/>
<path d="M304.875 241.226C304.445 241.226 304.107 240.887 304.107 240.456V176.545C304.107 176.114 304.445 175.775 304.875 175.775C305.305 175.775 305.643 176.114 305.643 176.545V240.456C305.643 240.887 305.29 241.226 304.875 241.226Z" fill="#426BFF"/>
<path d="M285.57 244.287C285.57 246.395 287.275 248.103 289.379 248.103C291.483 248.103 293.188 246.395 293.188 244.287C293.188 242.18 291.483 240.472 289.379 240.472C287.275 240.472 285.57 242.18 285.57 244.287Z" fill="#426BFF"/>
<path d="M327.083 186.853H280.179V181.96H328.373L327.083 186.853Z" fill="#3661FF"/>
<path d="M328.342 182.114L344.868 126.357H293.249L304.199 182.114H328.342Z" fill="#426BFF"/>
<path d="M283.942 181.96H279.504L271.963 241.995L260.598 243.257L264.1 240.518L261.212 185.991C261.181 185.484 261.197 184.976 261.151 184.468C260.183 172.052 270.75 164.375 270.75 164.375C270.75 164.375 285.156 161.836 283.942 181.96Z" fill="#FFC1BA"/>
<path d="M272.746 236.256L273.821 240.364C274.082 241.379 273.499 242.426 272.516 242.687L255.775 247.318C254.869 247.564 254.193 246.441 254.854 245.749L264.591 238.564L272.746 236.256Z" fill="#FF5640"/>
<path d="M272.746 236.256L270.642 238.441C270.642 238.441 267.11 242.764 260.966 241.256L264.576 238.579L272.746 236.256Z" fill="#FFC1BA"/>
<path d="M303.002 146.866L295.676 150.374L288.672 153.789L305.044 153.928L303.002 146.866Z" fill="#FFCEC8"/>
<path d="M321.969 158.836C321.969 158.836 328.926 174.991 319.312 181.96H288.672C288.672 181.96 287.981 163.652 270.75 164.39L280.087 158.836H321.969Z" fill="#FF6652"/>
<path d="M288.672 181.96H284.234L276.693 241.995L264.806 244.287L268.123 240.656L265.881 186.699C265.635 183.145 266.188 179.591 267.463 176.314C268.277 174.206 269.475 172.252 270.842 170.452L275.173 164.729C275.157 164.729 287.874 165.652 288.672 181.96Z" fill="#FFCEC8"/>
<path d="M319.373 150.066L320.955 154.236L306.887 153.928L319.373 150.066Z" fill="#384B61"/>
<path d="M235.272 160.39H356.294C357.984 160.39 359.366 159.005 359.366 157.313C359.366 155.62 357.984 154.236 356.294 154.236H235.272C233.583 154.236 232.201 155.62 232.201 157.313C232.201 159.005 233.568 160.39 235.272 160.39Z" fill="#FDA74C"/>
<path d="M236.455 247.395C236.409 247.395 236.363 247.395 236.332 247.38C235.917 247.303 235.626 246.918 235.702 246.487L250.2 160.698C250.277 160.282 250.661 159.99 251.091 160.067C251.506 160.144 251.798 160.528 251.721 160.959L237.223 246.749C237.146 247.134 236.824 247.395 236.455 247.395Z" fill="#426BFF"/>
<path d="M356.832 247.395C356.463 247.395 356.141 247.134 356.079 246.749L341.581 160.959C341.504 160.544 341.796 160.144 342.211 160.067C342.625 159.99 343.025 160.282 343.102 160.698L357.6 246.487C357.676 246.903 357.385 247.303 356.97 247.38C356.909 247.395 356.862 247.395 356.832 247.395Z" fill="#426BFF"/>
<path d="M307.118 111.741H313.967C317.024 111.741 319.926 113.048 321.953 115.341C322.967 116.495 323.735 117.849 324.18 119.31L330.016 138.404C330.877 141.204 330.293 144.25 328.465 146.527C327.237 148.066 325.517 149.143 323.597 149.605L305.06 153.943L301.42 147.635L295.676 150.389L289.056 153.605L287.981 146.127L286.015 153.743H264.115L263.915 152.051L277.522 147.512L281.562 123.418C281.884 121.464 282.698 119.603 283.896 118.033C286 115.279 289.149 113.556 292.589 113.279L295.768 113.018C295.768 113.018 298.594 114.987 301.711 114.556C301.727 114.556 305.674 114.233 307.118 111.741Z" fill="#384B61"/>
<path d="M301.42 148.097C301.251 148.097 301.082 148.004 301.005 147.835C300.897 147.604 300.99 147.327 301.22 147.22L316.425 139.958L311.571 124.126C311.495 123.88 311.633 123.618 311.879 123.541C312.124 123.464 312.385 123.603 312.447 123.849L317.423 140.066C317.484 140.281 317.392 140.512 317.177 140.619L301.604 148.051C301.558 148.081 301.481 148.097 301.42 148.097Z" fill="#212B38"/>
<path d="M287.981 146.589C287.766 146.589 287.567 146.435 287.536 146.204L286.108 138.173C286.062 137.927 286.231 137.681 286.476 137.635C286.722 137.588 286.968 137.758 287.014 138.004L288.442 146.035C288.488 146.281 288.319 146.527 288.073 146.574C288.043 146.589 288.012 146.589 287.981 146.589Z" fill="#212B38"/>
<path d="M289.41 139.619C288.288 139.619 287.183 139.235 286.292 138.481C284.956 137.373 284.295 135.665 284.526 133.957L286.246 120.972C286.277 120.71 286.507 120.557 286.768 120.572C287.014 120.603 287.198 120.834 287.167 121.095L285.447 134.081C285.263 135.481 285.8 136.865 286.891 137.773C287.951 138.65 289.348 138.927 290.638 138.512L290.853 138.927L290.992 139.373L290.853 138.927L290.93 139.389C290.423 139.527 289.916 139.619 289.41 139.619Z" fill="#212B38"/>
<path d="M305.705 154.236C305.49 154.236 305.305 154.097 305.259 153.882C305.198 153.636 305.351 153.389 305.597 153.328L318.959 150.189C319.204 150.128 319.45 150.281 319.512 150.528C319.573 150.774 319.419 151.02 319.174 151.082L305.812 154.22C305.766 154.236 305.735 154.236 305.705 154.236Z" fill="#212B38"/>
<path d="M299.454 154.236H284.94V151.466H296.689C298.21 151.451 299.454 152.697 299.454 154.236Z" fill="#293545"/>
<path d="M286.691 154.236H244.81L238.16 133.204C237.561 131.327 238.958 129.419 240.924 129.419H276.724C277.983 129.419 279.104 130.234 279.488 131.45L286.691 154.236Z" fill="#293545"/>
<path d="M257.772 142.881C258.417 144.02 259.769 144.45 260.782 143.866C261.796 143.281 262.088 141.896 261.427 140.758C260.767 139.619 259.431 139.188 258.417 139.773C257.419 140.358 257.127 141.758 257.772 142.881Z" fill="#526985"/>
<path d="M277.415 237.287L278.306 241.456C278.567 242.472 277.983 243.518 277 243.78L260.26 248.411C259.354 248.657 258.678 247.518 259.338 246.841L268.354 239.795L277.415 237.287Z" fill="#FF6652"/>
<path d="M277.215 237.333L275.111 239.518C275.111 239.518 271.318 243.78 265.175 242.272L268.338 239.81L277.215 237.333Z" fill="#FFCEC8"/>
<path d="M62.6932 172.775C58.0704 189.638 64.6897 209.254 67.792 226.979L77.5445 225.886C77.5445 225.886 79.3567 166.129 78.7885 164.313C73.3363 166.298 67.7306 165.852 62.1095 167.144C62.1249 167.159 62.6778 172.76 62.6932 172.775Z" fill="#FFCEC8"/>
<path d="M31.5161 223.578L25.465 238.902L19.1682 237.225L22.2552 221.563C22.2552 221.563 27.523 222.455 31.5161 223.578Z" fill="#FFCEC8"/>
<path d="M19.2604 236.087L17.786 239.718C17.4174 240.61 17.8014 241.641 18.6307 242.01L32.6527 248.364C33.4206 248.703 34.1424 247.749 33.6663 247.041L26.7091 239.456L19.2604 236.087Z" fill="#384B61"/>
<path d="M19.2604 236.087L20.8115 238.348C20.8115 238.348 23.576 242.733 29.1356 242.118L25.7108 237.841L19.2604 236.087Z" fill="#FFCEC8"/>
<path d="M77.5599 225.363L77.8363 242.21L71.4013 243.256L67.7921 226.979C67.7921 226.979 73.4593 225.978 77.5599 225.363Z" fill="#FFCEC8"/>
<path d="M71.048 242.179L71.1094 246.118C71.1248 247.087 71.862 247.872 72.7681 247.887L88.0955 247.964C88.9248 247.964 89.2166 246.795 88.5101 246.334L79.1878 242.226L71.048 242.179Z" fill="#384B61"/>
<path d="M71.048 242.179L73.3517 243.61C73.3517 243.61 77.5905 246.503 82.4437 243.656L77.6366 241.133L71.048 242.179Z" fill="#FFCEC8"/>
<path d="M62.3859 121.957L66.379 126.788L50.0841 179.36L39.5484 176.145L32.0383 173.852C34.7721 152.42 35.371 137.988 38.0894 125.372C39.4563 119.018 43.7105 113.802 49.4851 111.433L53.3554 109.848L62.3859 121.957Z" fill="#FFCEC8"/>
<path d="M50.0841 179.36L31.209 224.317L22.2552 221.563C25.9719 205.946 28.7978 192.115 33.3899 173.529H42.3897L50.0841 179.36Z" fill="#FFCEC8"/>
<path d="M77.9438 150.051C79.2338 154.559 80.1861 159.174 80.5393 163.867C80.9079 168.821 80.9232 174.252 78.9113 178.883C74.8261 175.545 57.5636 171.714 53.0944 173.821C47.4733 176.483 41.2993 177.575 35.1254 176.683C27.4002 175.56 20.873 172.744 16.3424 166.036C13.409 161.698 10.6753 155.128 11.0439 149.789C12.5643 150.297 13.9005 150.881 15.5899 150.22C18.6922 149.004 20.6273 145.789 23.2382 143.866C27.7996 140.496 30.3644 135.111 32.407 129.834C34.4496 124.541 36.2158 119.018 39.7482 114.587C40.4546 113.695 41.2686 112.833 42.313 112.402C44.3095 111.571 46.5672 110.525 48.5944 111.248C53.4783 112.987 57.9475 107.725 61.357 112.079C63.2307 114.464 64.5208 117.233 65.7802 119.972C67.0549 122.741 68.6675 125.403 69.804 128.203C72.507 134.911 75.3482 141.573 77.4677 148.512C77.6366 148.989 77.7902 149.528 77.9438 150.051Z" fill="#FF6652"/>
<path d="M67.7153 56.6295C65.9798 56.0449 65.2119 53.2139 65.2119 53.2139C65.4116 50.6138 64.8433 48.9829 64.1829 47.9828L51.2668 47.4597L50.9289 57.1065L49.562 69.5842L60.2973 69.9534L59.7905 64.2146C59.7905 64.2146 59.8673 64.23 59.9748 64.2454L63.5225 64.7069L64.2751 64.8608C64.6283 64.8916 64.9816 64.83 65.2887 64.6762C66.5481 64.1223 66.4866 59.2297 66.4866 59.2297L66.5788 58.3527C68.0839 57.768 67.7153 56.6295 67.7153 56.6295Z" fill="#FFCEC8"/>
<path d="M59.8059 64.2146L54.9066 63.0915L59.8519 65.4609L59.8059 64.2146Z" fill="#FF897A"/>
<path d="M56.5961 54.6294C56.5961 54.6294 58.8691 53.8601 60.4049 51.5061C61.5414 49.7676 61.4646 48.2598 61.4646 48.2598C61.4646 48.2598 64.2905 48.6444 65.212 52.9216C65.212 52.9216 66.6095 48.7675 63.4611 45.6288C61.0653 43.2441 48.5791 41.244 45.4921 51.4754C43.6184 57.6911 50.8214 61.8145 50.2378 63.353C50.2378 63.353 55.1063 62.5991 53.9698 58.2604L56.5961 54.6294Z" fill="#5C403A"/>
<path d="M61.4645 48.2598C61.4645 48.2598 62.5089 55.6294 56.5653 58.1065C56.5653 58.1065 56.596 55.3064 53.9237 54.2909L61.4645 48.2598Z" fill="#5C403A"/>
<path d="M56.9185 59.4451C55.6285 60.3528 54.3077 60.6759 53.2326 59.1374C52.1575 57.5988 51.7429 54.7679 53.0176 53.8601C54.3077 52.9524 56.2121 53.4755 57.2871 55.014C58.3776 56.568 58.2086 58.5527 56.9185 59.4451Z" fill="#FFCEC8"/>
<path d="M51.8504 60.4913C51.7122 63.7838 48.9477 66.3532 45.6611 66.2147C42.3744 66.0763 39.8096 63.3069 39.9478 60.0144C40.0861 56.7218 42.8505 54.1525 46.1372 54.2909C49.4238 54.4294 51.9886 57.1988 51.8504 60.4913Z" fill="#5C403A"/>
<path d="M49.8845 56.0603C49.8231 56.0603 49.7463 56.0295 49.7002 55.9833C47.9187 54.0601 45.5382 54.5371 45.5228 54.5371C45.3846 54.5679 45.2617 54.4756 45.231 54.3371C45.2003 54.1986 45.2925 54.0755 45.4307 54.0448C45.5382 54.014 48.103 53.5063 50.0842 55.6295C50.1763 55.7372 50.1763 55.891 50.0688 55.9833C50.0074 56.0449 49.946 56.0603 49.8845 56.0603Z" fill="white"/>
<path d="M66.6402 89.7239L81.8448 125.372L77.9899 127.926L60.6967 109.941L66.6402 89.7239Z" fill="#FFCEC8"/>
<path d="M78.5121 121.957L76.0394 125.818L85.3157 136.281C85.5461 136.465 85.8533 136.465 86.0683 136.311C86.3447 136.142 86.4062 135.773 86.2526 135.481C86.8515 136.127 87.4351 136.742 88.0341 137.388C88.0341 137.404 88.4181 137.604 88.7713 137.435C89.0631 137.265 89.232 136.865 89.0938 136.496C89.3088 136.742 89.5238 136.988 89.7235 137.235C90.0921 137.419 90.5375 137.388 90.8446 137.111C91.1518 136.85 91.1825 136.496 91.0289 136.096C90.7064 135.742 90.3993 135.373 90.0921 135.034L88.0648 132.727L90.5682 134.388C90.9521 134.634 91.3361 134.665 91.6279 134.311C91.9044 133.957 91.8122 133.542 91.4897 133.204C89.7849 131.634 88.2952 129.865 86.5904 128.265L87.8959 128.819C88.1723 128.957 88.4949 129.019 88.8174 128.972C89.2628 128.911 89.6467 128.665 89.8771 128.326L87.2048 126.742L84.5478 125.203C83.9949 124.88 83.3499 124.772 82.7356 124.895L81.5223 125.126L78.5121 121.957Z" fill="#FFCEC8"/>
<path d="M47.1815 72.4151L43.0502 112.91L61.357 112.033C61.1727 108.387 65.6112 93.1241 65.6112 93.1241L68.99 89.2008C69.4661 88.3084 69.7426 87.3699 69.8347 86.4006C70.0497 84.0928 68.8518 81.9388 66.9935 80.5541C64.659 78.8309 63.1386 73.646 60.5431 70.2919C50.4528 69.9381 49.7156 67.7379 49.7156 67.7379C48.4869 71.0612 47.1815 72.4151 47.1815 72.4151Z" fill="#384B61"/>
<path d="M52.2804 69.2303C52.2804 69.2303 54.0619 71.3381 57.5021 74.1075C58.6847 75.046 61.526 77.2923 63.4304 76.8769L64.229 76.7846C63.5072 75.123 61.8178 71.3997 60.2973 69.9534L52.2804 69.2303Z" fill="#FFCEC8"/>
<path d="M61.3771 129.831L36.6709 125.34L33.2003 144.505L57.9065 148.995L61.3771 129.831Z" fill="white"/>
<path d="M53.9544 149.22L23.1614 143.619C22.5471 143.512 22.1478 142.927 22.2553 142.312L25.6648 123.526C25.7723 122.911 26.3559 122.511 26.9702 122.618L57.7632 128.219C58.3775 128.326 58.7768 128.911 58.6693 129.526L55.2598 148.327C55.137 148.928 54.5687 149.328 53.9544 149.22Z" fill="#384B61"/>
<path d="M53.8009 71.4766C53.4323 71.2612 53.079 71.0766 52.7411 70.9381C51.3436 70.3381 49.4084 70.0919 48.0108 70.8458C46.6747 71.5536 45.6457 73.0613 45.0467 74.4153C44.156 76.4308 43.9717 78.6617 43.6338 80.8157C43.0041 84.7698 42.3744 88.7238 41.7601 92.6779C41.3608 95.155 40.9768 97.6321 40.5775 100.109C40.5775 100.125 40.5775 100.155 40.5622 100.171L36.8762 137.281L42.4205 137.881C42.4205 137.881 49.992 115.402 52.1729 108.925C52.5568 107.771 52.8486 106.602 53.0637 105.417C53.7394 101.432 54.4305 97.4475 55.1063 93.4626C55.8281 89.2623 56.55 85.0621 57.2564 80.8464C57.625 78.6925 57.7479 76.6462 56.9186 74.5845C56.381 73.3383 55.0756 72.2151 53.8009 71.4766Z" fill="#FFCEC8"/>
<path d="M56.3042 90.5855C56.8571 87.3699 57.41 84.1389 57.9475 80.9233C58.3468 78.554 58.4851 76.2923 57.5789 74.046C57.026 72.6767 55.5977 71.4458 54.1848 70.615C53.7855 70.3842 53.3862 70.1842 53.0176 70.015C51.4664 69.3534 49.3623 69.0918 47.8112 69.9073C46.3521 70.6919 45.2156 72.3382 44.5552 73.8306C43.5723 76.0461 43.388 78.4924 43.0041 80.8618C42.4973 84.0928 41.9751 87.3391 41.4683 90.5701H56.3042V90.5855Z" fill="#384B61"/>
<path d="M37.4444 135.419L36.953 137.081L34.2653 141.235C34.1271 141.296 33.6049 142.958 33.2517 144.127C33.052 144.773 33.2824 145.62 33.8199 146.035L35.494 146.897C35.9086 147.066 36.354 147.097 36.7994 146.989L38.9188 146.466L37.0758 145.804C37.4752 145.435 37.8898 145.066 38.2891 144.697L39.9325 143.066L40.2089 143.312L39.9939 144.789C39.9171 145.266 39.9632 145.758 40.1321 146.22C40.3318 146.758 40.9 147.066 41.4683 146.927L41.3608 144.927C41.3608 144.927 41.7601 142.589 41.7754 142.496C41.7908 142.419 42.3437 138.819 42.3437 138.819L42.9734 136.188L37.4444 135.419Z" fill="#FFCEC8"/>
<path d="M56.5038 89.8162C56.4731 89.8162 56.4577 89.8162 56.427 89.8162C56.2427 89.7854 56.1199 89.6008 56.1506 89.4008C56.1659 89.2931 58.2853 78.8924 57.9475 76.4615C57.9168 76.2769 58.055 76.0923 58.2393 76.0615C58.4389 76.0307 58.6079 76.1692 58.6386 76.3538C59.0072 78.9078 56.9338 89.0931 56.8417 89.5239C56.811 89.7085 56.6574 89.8162 56.5038 89.8162Z" fill="#384B61"/>
<path d="M392.232 249.226H-16.2321C-16.6621 249.226 -17 248.888 -17 248.457C-17 248.026 -16.6621 247.688 -16.2321 247.688H392.232C392.662 247.688 393 248.026 393 248.457C393 248.888 392.662 249.226 392.232 249.226Z" fill="#FF6600" fill-opacity="0.08"/>
</g>
<defs>
<clipPath id="clip0_1_1329">
<rect width="410" height="249" fill="white" transform="translate(-17 0.226074)"/>
</clipPath>
</defs>
</svg>
